<?xml version="1.0" standalone="no"?>
<!DOCTYPE svg PUBLIC "-//W3C//DTD SVG 1.1//EN" "http://www.w3.org/Graphics/SVG/1.1/DTD/svg11.dtd" >
<svg xmlns="http://www.w3.org/2000/svg" xmlns:xlink="http://www.w3.org/1999/xlink" version="1.1">
<metadata>
Created by FontForge 20161013 at Sat Feb 11 11:42:35 2017
 By ,,,
Copyright (c) 2016. Arca Majora 3 is a trademark of Alfredo Marco Pradil. All rights reserved.
</metadata>
<defs>
<font id="ArcaMajora3-Black" horiz-adv-x="0" >
  <font-face 
    font-family="Arca Majora 3 Black"
    font-weight="900"
    font-stretch="normal"
    units-per-em="1000"
    panose-1="0 0 10 0 0 0 0 0 0 0"
    ascent="800"
    descent="-200"
    x-height="544"
    cap-height="810"
    bbox="-712 -297 1245 1299"
    underline-thickness="90"
    underline-position="-280"
    unicode-range="U+000D-F8FF"
  />
<missing-glyph horiz-adv-x="608" 
d="M88 790h432v-770h-432v770zM108 770v-730h392v730h-392z" />
    <glyph glyph-name=".notdef" horiz-adv-x="608" 
d="M88 790h432v-770h-432v770zM108 770v-730h392v730h-392z" />
    <glyph glyph-name=".null" 
 />
    <glyph glyph-name="nonmarkingreturn" horiz-adv-x="333" 
 />
    <glyph glyph-name="NULL" horiz-adv-x="45" 
 />
    <glyph glyph-name="NULL" horiz-adv-x="45" 
 />
    <glyph glyph-name="CR" unicode="&#xd;" horiz-adv-x="115" 
 />
    <glyph glyph-name="space" unicode=" " horiz-adv-x="325" 
 />
    <glyph glyph-name="exclam" unicode="!" horiz-adv-x="384" 
d="M101 287v523h180v-523h-180zM191 -10q-49 0 -82.5 33.5t-33.5 82.5q0 48 34 82.5t82 34.5q49 0 83 -34.5t34 -82.5q0 -50 -33.5 -83t-83.5 -33z" />
    <glyph glyph-name="quotedbl" unicode="&#x22;" horiz-adv-x="616" 
d="M103 423v387h160v-387h-160zM353 423v387h160v-387h-160z" />
    <glyph glyph-name="numbersign" unicode="#" horiz-adv-x="736" 
d="M130 0l21 155h-101l20 138h101l19 140h-101l20 138h100l22 155h147l-22 -155h81l22 155h147l-22 -155h101l-18 -138h-102l-19 -140h100l-17 -138h-103l-21 -155h-147l21 155h-81l-21 -155h-147zM318 293h81l19 140h-81z" />
    <glyph glyph-name="dollar" unicode="$" horiz-adv-x="586" 
d="M555 251q0 -102 -58 -172t-152 -85v-70h-130v77q-73 20 -125.5 72.5t-69.5 125.5l148 67q13 -54 46 -84.5t77 -30.5q45 0 68.5 28t23.5 64q0 22 -9 39.5t-31.5 33t-39 24t-51.5 24.5q-34 16 -53.5 26t-48.5 31t-45 42.5t-28 55t-12 74.5q0 80 40.5 137t109.5 78v78h130
v-70q62 -12 109.5 -50t69.5 -100l-140 -62q-32 65 -83 65q-29 0 -47 -18t-18 -44q0 -12 4 -23t13.5 -21t17.5 -17t24.5 -16t26 -13.5t30.5 -14.5t30 -14q37 -18 63.5 -35.5t53.5 -45t41.5 -67t14.5 -89.5z" />
    <glyph glyph-name="percent" unicode="%" horiz-adv-x="847" 
d="M229 460q-73 0 -124 53t-51 127t51 127t124 53t124 -53t51 -127t-51 -127t-124 -53zM78 -1l508 811h181l-508 -811h-181zM229 593q21 0 34 13t13 34t-13 34t-34 13q-20 0 -33.5 -13.5t-13.5 -33.5t13.5 -33.5t33.5 -13.5zM618 -10q-73 0 -124.5 52.5t-51.5 127.5
t51.5 127.5t124.5 52.5t124 -53t51 -127t-51.5 -127t-123.5 -53zM618 123q20 0 34 13.5t14 33.5t-14 33.5t-34 13.5q-21 0 -35 -13t-14 -34q0 -20 14 -33.5t35 -13.5z" />
    <glyph glyph-name="ampersand" unicode="&#x26;" horiz-adv-x="795" 
d="M637 -11l-105 105l-14 -14q-77 -80 -190 -80t-191 79t-78 194q0 113 79 194l18 19q-31 50 -31 112q0 86 59 145.5t144 59.5q82 0 140.5 -58t58.5 -139q0 -87 -63 -142l-107 105q16 14 16 37q0 20 -13 31.5t-34 11.5t-34 -14.5t-13 -38.5q0 -21 14 -35l239 -243l107 108
l110 -111l-107 -108l105 -107zM328 158q45 0 81 36l13 13l-160 163q-26 -28 -37 -48t-11 -49q0 -49 33 -82t81 -33z" />
    <glyph glyph-name="quotesingle" unicode="'" horiz-adv-x="366" 
d="M103 423v387h160v-387h-160z" />
    <glyph glyph-name="parenleft" unicode="(" horiz-adv-x="412" 
d="M373 931v-165q-41 15 -76.5 -28t-56 -131.5t-20.5 -201.5q0 -172 44.5 -277.5t108.5 -83.5v-165q-94 -8 -168.5 57t-115.5 188t-41 281q0 241 91 390t234 136z" />
    <glyph glyph-name="parenright" unicode=")" horiz-adv-x="412" 
d="M39 931q143 13 234 -136t91 -390q0 -158 -41 -281t-115.5 -188t-168.5 -57v165q64 -22 108.5 83.5t44.5 277.5q0 113 -20.5 201.5t-56 131.5t-76.5 28v165z" />
    <glyph glyph-name="asterisk" unicode="*" horiz-adv-x="527" 
d="M215 474l-102 59l69 94l-116 -12v117l116 -12l-69 94l102 59l48 -106l47 106l104 -59l-71 -94l117 12v-117l-117 12l71 -94l-104 -59l-47 106z" />
    <glyph glyph-name="plus" unicode="+" horiz-adv-x="653" 
d="M241 22v186h-186v170h186v186h170v-186h187v-170h-187v-186h-170z" />
    <glyph glyph-name="comma" unicode="," horiz-adv-x="355" 
d="M98 -136v337h198l-79 -337h-119z" />
    <glyph glyph-name="hyphen" unicode="-" horiz-adv-x="586" 
d="M69 208v170h448v-170h-448z" />
    <glyph glyph-name="period" unicode="." horiz-adv-x="396" 
d="M197 -10q-49 0 -82.5 33.5t-33.5 82.5q0 48 34 82.5t82 34.5q49 0 83 -34.5t34 -82.5q0 -50 -33.5 -83t-83.5 -33z" />
    <glyph glyph-name="slash" unicode="/" horiz-adv-x="619" 
d="M0 -200l432 1040h187l-432 -1040h-187z" />
    <glyph glyph-name="zero" unicode="0" horiz-adv-x="660" 
d="M330 -12q-134 0 -210 105t-76 317q0 205 75.5 307.5t210.5 102.5t210.5 -102.5t75.5 -307.5q0 -212 -76 -317t-210 -105zM330 157q59 0 87.5 55t28.5 198q0 132 -29 186.5t-87 54.5t-87 -54.5t-29 -186.5q0 -143 28.5 -198t87.5 -55z" />
    <glyph glyph-name="one" unicode="1" horiz-adv-x="401" 
d="M146 0v641h-133v169h304v-810h-171z" />
    <glyph glyph-name="two" unicode="2" horiz-adv-x="619" 
d="M5 0l376 499q18 24 18 56q0 38 -26.5 64.5t-65.5 26.5t-65.5 -26t-26.5 -65h-170q0 108 77.5 185t184.5 77t184.5 -77.5t77.5 -184.5q0 -89 -53 -159l-171 -226h229v-170h-569z" />
    <glyph glyph-name="three" unicode="3" horiz-adv-x="603" 
d="M476 450q94 -70 94 -189q0 -112 -80 -191.5t-192 -79.5q-113 0 -192.5 79.5t-79.5 192.5h170q0 -45 26.5 -73.5t75.5 -28.5q48 0 75 29t27 72q0 49 -28.5 80t-73.5 31h-33v135h33q28 0 49 20.5t21 58.5q0 36 -23.5 55t-55.5 19q-36 0 -57.5 -22.5t-21.5 -55.5h-172
q0 102 71.5 170t179.5 68q106 0 172.5 -65.5t66.5 -161.5q0 -83 -52 -143z" />
    <glyph glyph-name="four" unicode="4" horiz-adv-x="637" 
d="M526 304h89v-169h-89v-135h-170v135h-336v159l306 516h200v-506zM181 304h175v301z" />
    <glyph glyph-name="five" unicode="5" horiz-adv-x="583" 
d="M275 533q113 0 193 -79t80 -192q0 -114 -80 -194t-193 -80q-91 0 -164.5 54.5t-98.5 142.5l161 64q5 -39 34 -63t68 -24q43 0 73 30.5t30 73.5t-30 73t-73 30q-56 0 -89 -48l-125 99l66 390h381v-169h-243l-15 -110q10 2 25 2z" />
    <glyph glyph-name="six" unicode="6" horiz-adv-x="586" 
d="M291 -11q-112 0 -190.5 81t-78.5 197q0 84 64 186l225 358h196l-168 -270q98 -17 160.5 -94t62.5 -182q0 -114 -79.5 -195t-191.5 -81zM292 159q45 0 76.5 31.5t31.5 76.5t-31.5 76.5t-76.5 31.5t-76.5 -31.5t-31.5 -76.5t31.5 -76.5t76.5 -31.5z" />
    <glyph glyph-name="seven" unicode="7" horiz-adv-x="586" 
d="M15 810h568l-311 -810h-191l263 641h-329v169z" />
    <glyph glyph-name="eight" unicode="8" horiz-adv-x="612" 
d="M492 458q86 -80 86 -196q0 -112 -80 -192t-192 -80t-192 80t-80 192q0 116 86 196q-44 60 -44 135q0 94 67.5 160.5t162.5 66.5t162.5 -66.5t67.5 -160.5q0 -75 -44 -135zM306 663q-30 0 -51.5 -21t-21.5 -51q0 -31 21.5 -52t51.5 -21t51.5 21t21.5 52q0 30 -21 51
t-52 21zM306 160q43 0 72.5 29.5t29.5 72.5q0 41 -30 70.5t-72 29.5t-72 -29.5t-30 -70.5q0 -43 29.5 -72.5t72.5 -29.5z" />
    <glyph glyph-name="nine" unicode="9" horiz-adv-x="586" 
d="M79 0l168 270q-98 17 -160.5 94.5t-62.5 182.5q0 115 79 195t192 80q109 0 189 -79t80 -186q0 -98 -64 -199l-225 -358h-196zM294 436q45 0 76.5 31.5t31.5 76.5t-31.5 76.5t-76.5 31.5t-76.5 -31.5t-31.5 -76.5t31.5 -76.5t76.5 -31.5z" />
    <glyph glyph-name="colon" unicode=":" horiz-adv-x="370" 
d="M184 413q-49 0 -82.5 33.5t-33.5 82.5q0 48 34 82.5t82 34.5q49 0 83 -34.5t34 -82.5q0 -50 -33.5 -83t-83.5 -33zM184 -10q-49 0 -82.5 33.5t-33.5 82.5q0 48 34 82.5t82 34.5q49 0 83 -34.5t34 -82.5q0 -50 -33.5 -83t-83.5 -33z" />
    <glyph glyph-name="semicolon" unicode=";" horiz-adv-x="376" 
d="M192 413q-49 0 -82.5 33.5t-33.5 82.5q0 48 34 82.5t82 34.5q49 0 83 -34.5t34 -82.5q0 -50 -33.5 -83t-83.5 -33zM96 -136v337h197l-57 -337h-140z" />
    <glyph glyph-name="less" unicode="&#x3c;" horiz-adv-x="557" 
d="M469 14l-426 226v114l426 207v-173l-192 -95l192 -101v-178z" />
    <glyph glyph-name="equal" unicode="=" horiz-adv-x="658" 
d="M105 343v170h448v-170h-448zM105 69v170h448v-170h-448z" />
    <glyph glyph-name="greater" unicode="&#x3e;" horiz-adv-x="557" 
d="M88 14v178l192 101l-192 95v173l426 -207v-114z" />
    <glyph glyph-name="question" unicode="?" horiz-adv-x="539" 
d="M186 296v89q0 47 14 79t34.5 47.5t41 26.5t34.5 26t14 37q0 59 -54 59q-61 0 -61 -77h-170q0 107 58.5 172t169.5 65q99 0 163 -59t64 -158q0 -44 -14 -75t-34.5 -47.5t-41 -30t-34.5 -32t-14 -44.5v-78h-170zM272 -10q-49 0 -83 33.5t-34 81.5q0 49 34 83.5t82 34.5
t82.5 -34.5t34.5 -83.5q0 -48 -33.5 -81.5t-82.5 -33.5z" />
    <glyph glyph-name="at" unicode="@" horiz-adv-x="873" 
d="M661 496q-10 -50 -45 -223q-12 -60 -7 -82t32 -22q43 0 70.5 47t27.5 122q0 122 -77.5 194t-208.5 72q-136 0 -222.5 -88t-86.5 -227q0 -138 87 -223t227 -85q149 0 250 85l58 -78q-128 -105 -315 -105q-184 0 -301 114t-117 293q0 174 121.5 292.5t299.5 118.5
q171 0 278.5 -98.5t107.5 -256.5q0 -122 -60 -197.5t-157 -75.5q-79 0 -103 61q-50 -60 -128 -60q-74 0 -119.5 51t-45.5 134q0 105 64.5 178.5t158.5 73.5q71 0 108 -45l7 30h96zM522 319q2 99 -72 99q-47 0 -80 -47t-33 -115q0 -41 18.5 -64.5t51.5 -23.5q55 0 83.5 46.5
t31.5 104.5z" />
    <glyph glyph-name="A" unicode="A" horiz-adv-x="770" 
d="M577 0l-45 110h-294l-45 -110h-189l381 830l381 -830h-189zM299 260h172l-86 212z" />
    <glyph glyph-name="B" unicode="B" horiz-adv-x="702" 
d="M88 0v810h283q101 0 173 -72t72 -173q0 -74 -43 -129q46 -32 72 -82t26 -109q0 -101 -72 -173t-173 -72h-338zM258 486h113q32 0 53.5 22t21.5 54t-22 55t-53 23h-113v-154zM258 170h168q31 0 53 23t22 55t-21.5 54t-53.5 22h-168v-154z" />
    <glyph glyph-name="C" unicode="C" horiz-adv-x="713" 
d="M453 -10q-175 0 -297.5 121.5t-122.5 294.5t122.5 293.5t297.5 120.5q103 0 199 -53v-219q-90 100 -201 100q-103 0 -174.5 -70.5t-71.5 -172.5t71 -172.5t174 -70.5q112 0 202 101v-220q-96 -53 -199 -53z" />
    <glyph glyph-name="D" unicode="D" horiz-adv-x="770" 
d="M88 0v810h244q168 0 286.5 -118.5t118.5 -286.5t-118.5 -286.5t-286.5 -118.5h-244zM258 170h74q99 0 167 68t68 167q0 98 -68.5 166.5t-166.5 68.5h-74v-470z" />
    <glyph glyph-name="E" unicode="E" horiz-adv-x="668" 
d="M88 0v810h520v-170h-350v-150h310v-170h-310v-150h350v-170h-520z" />
    <glyph glyph-name="F" unicode="F" horiz-adv-x="641" 
d="M88 0v810h520v-170h-350v-150h310v-170h-310v-320h-170z" />
    <glyph glyph-name="G" unicode="G" horiz-adv-x="808" 
d="M452 -10q-175 0 -297 121t-122 294t122 294t296 121q175 0 302 -132l-121 -121q-75 81 -181 81q-103 0 -174.5 -70.5t-71.5 -172.5t71 -172.5t174 -70.5q75 0 136 41v117h-156v170h317v-384q-135 -116 -295 -116z" />
    <glyph glyph-name="H" unicode="H" horiz-adv-x="757" 
d="M88 0v810h170v-320h241v320h170v-810h-170v320h-241v-320h-170z" />
    <glyph glyph-name="I" unicode="I" horiz-adv-x="346" 
d="M88 0v810h170v-810h-170z" />
    <glyph glyph-name="J" unicode="J" horiz-adv-x="573" 
d="M264 -10q-103 0 -171 62t-68 157v125h170v-125q0 -29 19 -45.5t50 -16.5t50 16.5t19 45.5v601h170v-601q0 -95 -68 -157t-171 -62z" />
    <glyph glyph-name="K" unicode="K" horiz-adv-x="702" 
d="M693 0h-205l-230 359v-359h-170v810h170v-301l225 301h209l-286 -372z" />
    <glyph glyph-name="L" unicode="L" horiz-adv-x="565" 
d="M88 0v810h170v-640h290v-170h-460z" />
    <glyph glyph-name="M" unicode="M" horiz-adv-x="948" 
d="M88 0v830l386 -502l386 502v-830h-169v358l-217 -299l-216 299v-358h-170z" />
    <glyph glyph-name="N" unicode="N" horiz-adv-x="809" 
d="M721 -20l-463 452v-432h-170v830l463 -454v434h170v-830z" />
    <glyph glyph-name="O" unicode="O" horiz-adv-x="896" 
d="M448 -10q-172 0 -293.5 121.5t-121.5 293.5t121.5 293.5t293.5 121.5t293.5 -121.5t121.5 -293.5t-121.5 -293.5t-293.5 -121.5zM448 160q102 0 173.5 71.5t71.5 173.5t-71.5 173.5t-173.5 71.5t-173.5 -71.5t-71.5 -173.5t71.5 -173.5t173.5 -71.5z" />
    <glyph glyph-name="P" unicode="P" horiz-adv-x="682" 
d="M88 0v810h307q116 0 189 -73t73 -189q0 -117 -72.5 -190t-189.5 -73h-137v-285h-170zM258 455h137q42 0 67 25t25 68q0 42 -25 67t-67 25h-137v-185z" />
    <glyph glyph-name="Q" unicode="Q" horiz-adv-x="896" 
d="M863 405q0 -150 -95 -264.5t-239 -142.5v-123h-163v123q-144 29 -238.5 143t-94.5 264q0 172 121.5 293.5t293.5 121.5t293.5 -121.5t121.5 -293.5zM529 174q73 25 118.5 88t45.5 143q0 102 -71.5 173.5t-173.5 71.5t-173.5 -71.5t-71.5 -173.5q0 -79 45.5 -142.5
t117.5 -88.5v123h163v-123z" />
    <glyph glyph-name="R" unicode="R" horiz-adv-x="716" 
d="M696 0h-197l-158 285h-83v-285h-170v810h307q112 0 187 -75t75 -187q0 -79 -38.5 -141.5t-103.5 -94.5zM258 640v-185h137q42 0 67 25t25 68q0 42 -25 67t-67 25h-137z" />
    <glyph glyph-name="S" unicode="S" horiz-adv-x="586" 
d="M296 -10q-100 0 -177 58t-99 151l148 67q13 -54 46 -84.5t77 -30.5q45 0 68.5 28t23.5 64q0 22 -9 39.5t-31.5 33t-39 24t-51.5 24.5q-34 16 -53.5 26t-48.5 31t-45 42.5t-28 55t-12 74.5q0 102 64.5 164.5t165.5 62.5q78 0 140 -39.5t89 -114.5l-140 -62q-32 65 -83 65
q-29 0 -47 -18t-18 -44q0 -12 4 -23t13.5 -21t17.5 -17t24.5 -16t26 -13.5t30.5 -14.5t30 -14q37 -18 63.5 -35.5t53.5 -45t41.5 -67t14.5 -89.5q0 -116 -73 -188.5t-186 -72.5z" />
    <glyph glyph-name="T" unicode="T" horiz-adv-x="599" 
d="M215 0v640h-198v170h565v-170h-197v-640h-170z" />
    <glyph glyph-name="U" unicode="U" horiz-adv-x="732" 
d="M70 810h170v-524q0 -53 36.5 -89.5t89.5 -36.5t89.5 36.5t36.5 89.5v524h170v-524q0 -123 -86.5 -209.5t-209.5 -86.5t-209.5 86.5t-86.5 209.5v524z" />
    <glyph glyph-name="V" unicode="V" horiz-adv-x="770" 
d="M385 -20l-381 830h189l192 -439l192 439h189z" />
    <glyph glyph-name="W" unicode="W" horiz-adv-x="1061" 
d="M1057 810l-381 -830l-145 326l-146 -326l-381 830h188l198 -470l61 144l-146 326h168l58 -137l57 137h168l-146 -326l61 -144l198 470h188z" />
    <glyph glyph-name="X" unicode="X" horiz-adv-x="760" 
d="M749 810l-253 -409l250 -401h-201l-165 264l-165 -264h-201l250 401l-253 409h201l168 -271l168 271h201z" />
    <glyph glyph-name="Y" unicode="Y" horiz-adv-x="676" 
d="M253 0v382l-252 428h208l129 -253l130 253h207l-252 -428v-382h-170z" />
    <glyph glyph-name="Z" unicode="Z" horiz-adv-x="716" 
d="M18 0l377 640h-344v170h641l-377 -640h362v-170h-659z" />
    <glyph glyph-name="bracketleft" unicode="[" horiz-adv-x="434" 
d="M90 -119l-3 1048h307v-159h-138l3 -730h138v-159h-307z" />
    <glyph glyph-name="backslash" unicode="\" horiz-adv-x="619" 
d="M432 -200l-432 1040h187l432 -1040h-187z" />
    <glyph glyph-name="bracketright" unicode="]" horiz-adv-x="434" 
d="M344 -119h-307v159h138l3 730h-138v159h307z" />
    <glyph glyph-name="asciicircum" unicode="^" horiz-adv-x="575" 
d="M47 294l188 496h89l205 -496h-133l-114 306l-106 -306h-129z" />
    <glyph glyph-name="underscore" unicode="_" horiz-adv-x="804" 
d="M103 0v155h598v-155h-598z" />
    <glyph glyph-name="grave" unicode="`" horiz-adv-x="287" 
d="M156 577l-130 117l113 80l130 -197h-113z" />
    <glyph glyph-name="a" unicode="a" horiz-adv-x="675" 
d="M291 -10q-112 0 -190.5 83t-78.5 200t79 200t190 83q85 0 144 -44v32h170v-544h-160l-2 39q-63 -49 -152 -49zM322 142q55 0 92 38t37 93q0 54 -37.5 92t-91.5 38q-55 0 -92.5 -37.5t-37.5 -92.5t38 -93t92 -38z" />
    <glyph glyph-name="b" unicode="b" horiz-adv-x="675" 
d="M381 -10q-86 0 -149 49l-2 -39h-160v810h170v-298q61 44 141 44q113 0 192.5 -82.5t79.5 -200.5q0 -119 -79 -201t-193 -82zM353 139q55 0 92.5 38.5t37.5 95.5t-37.5 95t-92.5 38t-92.5 -38.5t-37.5 -94.5q0 -57 37.5 -95.5t92.5 -38.5z" />
    <glyph glyph-name="c" unicode="c" horiz-adv-x="495" 
d="M308 -10q-120 0 -203 81.5t-83 200.5t83 200.5t203 81.5q70 0 128 -29v-184q-55 55 -123 55q-56 0 -91 -35t-35 -89q0 -53 35 -88t91 -35q66 0 123 54v-184q-58 -29 -128 -29z" />
    <glyph glyph-name="d" unicode="d" horiz-adv-x="675" 
d="M294 -10q-114 0 -193 82t-79 201q0 118 79.5 200.5t192.5 82.5q80 0 141 -44v298h170v-810h-160l-2 39q-63 -49 -149 -49zM322 139q55 0 92.5 38.5t37.5 95.5q0 56 -37.5 94.5t-92.5 38.5t-92.5 -38t-37.5 -95t37.5 -95.5t92.5 -38.5z" />
    <glyph glyph-name="e" unicode="e" horiz-adv-x="609" 
d="M308 554q120 0 199 -78t80 -199v-1l-2 -47h-392q11 -44 42.5 -69t75.5 -25q67 0 104 51l152 -39q-31 -73 -99.5 -115t-155.5 -42q-124 0 -207 80.5t-83 201.5q0 120 82 201t204 81zM309 411q-79 0 -109 -72h211q-28 72 -102 72z" />
    <glyph glyph-name="f" unicode="f" horiz-adv-x="403" 
d="M100 0v399h-85v145h85v79q0 89 52.5 143t140.5 54q81 0 100 -28v-151q-25 34 -67 34q-25 0 -41 -16.5t-16 -50.5v-64h126v-145h-126v-399h-169z" />
    <glyph glyph-name="g" unicode="g" horiz-adv-x="678" 
d="M437 544h171v-494q0 -128 -79 -209t-208 -81q-179 0 -272 130l125 91q26 -40 58.5 -57.5t84.5 -17.5q55 0 85.5 35.5t34.5 103.5q-55 -50 -137 -50q-118 0 -198 79.5t-80 197.5t80 200t195 82q81 0 140 -42v32zM322 137q56 0 95.5 39.5t39.5 95.5q0 57 -39.5 96t-95.5 39
t-95 -38.5t-39 -96.5q0 -57 39 -96t95 -39z" />
    <glyph glyph-name="h" unicode="h" horiz-adv-x="611" 
d="M70 0v810h169v-290q51 34 112 34q86 0 145 -60t59 -148v-346h-170v332q0 29 -19.5 47.5t-49.5 18.5q-33 0 -54.5 -19t-22.5 -48v-331h-169z" />
    <glyph glyph-name="i" unicode="i" horiz-adv-x="308" 
d="M155 630q-40 0 -68 28t-28 67t28 67t68 28t68 -27.5t28 -67.5t-28 -67.5t-68 -27.5zM70 0v544h168v-544h-168z" />
    <glyph glyph-name="j" unicode="j" horiz-adv-x="309" 
d="M155 593q-40 0 -68.5 28t-28.5 67t28.5 67t68.5 28q39 0 67 -28t28 -67t-28 -67t-67 -28zM-50 -230v156h75q21 0 33 15t12 41v562h169v-577q0 -89 -52.5 -143t-140.5 -54h-96z" />
    <glyph glyph-name="k" unicode="k" horiz-adv-x="596" 
d="M617 544l-223 -242l216 -302h-217l-153 228v-228h-170v810h170v-444l155 178h222z" />
    <glyph glyph-name="l" unicode="l" horiz-adv-x="309" 
d="M70 0v810h169v-810h-169z" />
    <glyph glyph-name="m" unicode="m" horiz-adv-x="900" 
d="M70 0v544h170v-24q46 34 102 34q83 0 144 -67q58 67 150 67q88 0 147 -61.5t59 -153.5v-339h-170v329q0 30 -18 49.5t-46 19.5q-29 0 -48 -21t-19 -54v-323h-170v329q0 31 -18.5 50t-47.5 19t-47 -21t-18 -54v-323h-170z" />
    <glyph glyph-name="n" unicode="n" horiz-adv-x="613" 
d="M70 0v544h169v-34q47 44 115 44q84 0 142.5 -60.5t58.5 -147.5v-346h-170v330q0 31 -20 50.5t-51 19.5q-32 0 -53 -20t-22 -50v-330h-169z" />
    <glyph glyph-name="o" unicode="o" horiz-adv-x="617" 
d="M309 -10q-121 0 -204 81.5t-83 200.5t83 200.5t204 81.5q120 0 203 -82t83 -200t-83 -200t-203 -82zM309 150q50 0 85 35.5t35 86.5q0 50 -35 85.5t-85 35.5q-52 0 -87.5 -35t-35.5 -86t35.5 -86.5t87.5 -35.5z" />
    <glyph glyph-name="p" unicode="p" horiz-adv-x="671" 
d="M70 -230v774h170v-32q60 42 140 42q111 0 189.5 -82.5t78.5 -199.5t-78.5 -199.5t-189.5 -82.5q-80 0 -140 42v-262h-170zM350 142q53 0 91 38t38 92t-38 92t-91 38q-55 0 -92.5 -38t-37.5 -92t37.5 -92t92.5 -38z" />
    <glyph glyph-name="q" unicode="q" horiz-adv-x="672" 
d="M432 -230v262q-60 -42 -140 -42q-111 0 -189.5 82.5t-78.5 199.5t78.5 199.5t189.5 82.5q80 0 140 -42v32h170v-774h-170zM322 142q55 0 92.5 38t37.5 92t-37.5 92t-92.5 38q-53 0 -91 -38t-38 -92t38 -92t91 -38z" />
    <glyph glyph-name="r" unicode="r" horiz-adv-x="384" 
d="M374 388q-135 31 -135 -95v-293h-169v544h169v-43q17 23 49.5 38t66.5 15q13 0 19 -1v-165z" />
    <glyph glyph-name="s" unicode="s" horiz-adv-x="480" 
d="M245 -10q-125 0 -231 75l96 118q77 -51 135 -51q40 0 40 29q0 8 -3 14t-12.5 11t-16.5 8t-26.5 9.5t-30.5 10.5q-84 31 -120 69t-36 96q0 79 56.5 127t145.5 48q114 0 209 -77l-101 -102q-63 47 -115 47q-31 0 -31 -26q0 -14 14 -22t69 -27q35 -12 59 -24t50.5 -32
t40 -51t13.5 -71q0 -82 -56 -130.5t-149 -48.5z" />
    <glyph glyph-name="t" unicode="t" horiz-adv-x="383" 
d="M107 0v399h-99v145h99v181h170v-181h98v-145h-98v-399h-170z" />
    <glyph glyph-name="u" unicode="u" horiz-adv-x="587" 
d="M293 -10q-109 0 -173.5 59t-64.5 160v335h170v-334q0 -32 18 -49.5t50 -17.5q33 0 51 17.5t18 49.5v334h170v-335q0 -100 -64.5 -159.5t-174.5 -59.5z" />
    <glyph glyph-name="v" unicode="v" horiz-adv-x="574" 
d="M287 -20l-296 564h184l112 -254l112 254h184z" />
    <glyph glyph-name="w" unicode="w" horiz-adv-x="849" 
d="M856 544l-271 -564l-160 344l-161 -344l-271 564h185l95 -229l98 229h107l98 -229l95 229h185z" />
    <glyph glyph-name="x" unicode="x" horiz-adv-x="659" 
d="M-3 0l229 272l-229 272h209l123 -153l126 153h207l-229 -272l229 -272h-209l-123 152l-123 -152h-210z" />
    <glyph glyph-name="y" unicode="y" horiz-adv-x="558" 
d="M396 544h182l-310 -774h-177l100 256l-212 518h186l113 -309z" />
    <glyph glyph-name="z" unicode="z" horiz-adv-x="555" 
d="M10 0l253 399h-222v145h497l-254 -399h236v-145h-510z" />
    <glyph glyph-name="braceleft" unicode="{" horiz-adv-x="392" 
d="M251 -121q-64 0 -107 50.5t-43 124.5v192q0 36 -0.5 49.5t-10.5 28t-20.5 19.5t-43.5 20v118q50 22 62.5 41t12.5 76v158q0 74 43 124.5t107 50.5h103v-161q-60 0 -71 -7t-11 -47v-131q0 -53 -22.5 -92.5t-82.5 -70.5q60 -31 82.5 -70.5t22.5 -92.5v-165
q0 -41 10.5 -47.5t71.5 -6.5v-161h-103z" />
    <glyph glyph-name="bar" unicode="|" horiz-adv-x="342" 
d="M111 -157v977h120v-977h-120z" />
    <glyph glyph-name="braceright" unicode="}" horiz-adv-x="407" 
d="M156 -121h-103v161q61 0 71.5 6.5t10.5 47.5v165q0 53 22.5 92.5t82.5 70.5q-60 31 -82.5 70.5t-22.5 92.5v131q0 40 -10.5 47t-71.5 7v161h103q64 0 107 -50.5t43 -124.5v-158q0 -57 12.5 -76t62.5 -41v-118q-33 -15 -43.5 -20t-20.5 -19.5t-10.5 -28t-0.5 -49.5v-192
q0 -74 -43 -124.5t-107 -50.5z" />
    <glyph glyph-name="asciitilde" unicode="~" horiz-adv-x="741" 
d="M212 272l-149 63q91 196 204 196q40 0 106.5 -43.5t87.5 -43.5q46 0 68 102l148 -63q-49 -106 -95.5 -151.5t-106.5 -45.5q-34 0 -67 14t-107 60q-28 17 -47.5 -2t-41.5 -86z" />
    <glyph glyph-name="DEL" horiz-adv-x="115" 
 />
    <glyph glyph-name="uni00A0" unicode="&#xa0;" horiz-adv-x="115" 
 />
    <glyph glyph-name="dieresis" unicode="&#xa8;" horiz-adv-x="487" 
d="M156 617q-28 0 -48.5 20.5t-20.5 48.5t20.5 48t48.5 20t48 -20t20 -48t-20 -48.5t-48 -20.5zM358 617q-28 0 -48.5 20.5t-20.5 48.5t20.5 48t48.5 20t48 -20t20 -48t-20 -48.5t-48 -20.5z" />
    <glyph glyph-name="copyright" unicode="&#xa9;" horiz-adv-x="884" 
d="M442 20q-159 0 -268.5 109.5t-109.5 268.5t109.5 268.5t268.5 109.5t268.5 -109.5t109.5 -268.5t-109.5 -268.5t-268.5 -109.5zM442 87q129 0 220 90.5t91 220.5q0 129 -90.5 220t-220.5 91q-129 0 -220 -90.5t-91 -220.5q0 -129 90.5 -220t220.5 -91zM463 162
q-93 0 -162.5 70.5t-69.5 166.5q0 92 65 162t157 70q70 0 119 -26v-95q-44 43 -107 43q-67 0 -112 -46t-45 -109q0 -64 45.5 -109.5t111.5 -45.5q63 0 107 43v-95q-55 -29 -109 -29z" />
    <glyph glyph-name="registered" unicode="&#xae;" horiz-adv-x="686" 
d="M343 254q-59 0 -106 22q-49 20 -87 58q-35 35 -59 86q-21 51 -21 107t21 107q24 51 59 86q38 38 87 58q47 22 106 22t106 -22q49 -20 87 -58q35 -35 59 -86q21 -51 21 -107t-21 -107q-24 -51 -59 -86q-38 -38 -87 -58q-47 -22 -106 -22zM343 314q45 0 83 16q36 15 67 46
q33 33 46 68q17 35 17 83q0 46 -17 83q-14 36 -46 68q-31 31 -67 46q-38 16 -83 16t-84 -16q-36 -16 -66 -46q-32 -32 -46 -68q-17 -37 -17 -83q0 -48 17 -83q13 -35 46 -68q30 -30 66 -46q39 -16 84 -16zM258 382v285h112q35 0 59 -25q24 -24 24 -59q0 -27 -17 -50
q-16 -22 -44 -30l63 -121h-56l-59 118h-34v-118h-48zM306 548h64q12 0 25 10q10 13 10 25q0 15 -10 25q-11 11 -25 11h-64v-71z" />
    <glyph glyph-name="macron" unicode="&#xaf;" horiz-adv-x="505" 
d="M113 595v104h318v-104h-318z" />
    <glyph glyph-name="acute" unicode="&#xb4;" horiz-adv-x="272" 
d="M1 577l130 197l113 -80l-130 -117h-113z" />
    <glyph glyph-name="cedilla" unicode="&#xb8;" horiz-adv-x="298" 
d="M156 -43q44 -6 70.5 -36t26.5 -74q0 -48 -31 -79.5t-83 -31.5q-63 0 -101 42l44 59q22 -34 56 -34q18 0 30.5 12t12.5 32q0 22 -13 33.5t-31 11.5q-25 0 -37 -16l-46 46l62 86h85z" />
    <glyph glyph-name="Agrave" unicode="&#xc0;" horiz-adv-x="770" 
d="M441 879h-113l-110 87l93 80zM577 0l-45 110h-294l-45 -110h-189l381 830l381 -830h-189zM299 260h172l-86 212z" />
    <glyph glyph-name="Aacute" unicode="&#xc1;" horiz-adv-x="770" 
d="M571 986l-130 -107h-113l150 187zM577 0l-45 110h-294l-45 -110h-189l381 830l381 -830h-189zM299 260h172l-86 212z" />
    <glyph glyph-name="Acircumflex" unicode="&#xc2;" horiz-adv-x="770" 
d="M385 961l-68 -82h-104l110 157h124l110 -157h-104zM577 0l-45 110h-294l-45 -110h-189l381 830l381 -830h-189zM299 260h172l-86 212z" />
    <glyph glyph-name="Atilde" unicode="&#xc3;" horiz-adv-x="770" 
d="M312 933q-39 0 -52 -67l-94 39q33 132 136 132q34 0 60.5 -16.5t49 -32.5t45.5 -16q51 0 56 71l91 -37q-33 -134 -139 -134q-35 0 -63.5 15t-50 30.5t-39.5 15.5zM577 0l-45 110h-294l-45 -110h-189l381 830l381 -830h-189zM299 260h172l-86 212z" />
    <glyph glyph-name="Adieresis" unicode="&#xc4;" horiz-adv-x="770" 
d="M284 889q-28 0 -48.5 20.5t-20.5 48.5t20.5 48t48.5 20t48 -20t20 -48t-20 -48.5t-48 -20.5zM486 889q-28 0 -48.5 20.5t-20.5 48.5t20.5 48t48.5 20t48 -20t20 -48t-20 -48.5t-48 -20.5zM577 0l-45 110h-294l-45 -110h-189l381 830l381 -830h-189zM299 260h172l-86 212z
" />
    <glyph glyph-name="Aring" unicode="&#xc5;" horiz-adv-x="770" 
d="M574 0l-46 110h-286l-46 -110h-192l300 654q-35 21 -56 57t-21 79q0 65 45.5 111.5t112.5 46.5q65 0 111.5 -45.5t46.5 -112.5q0 -43 -21 -79t-56 -57l300 -654h-192zM385 865q-31 0 -53 -21.5t-22 -53.5q0 -31 21.5 -53t53.5 -22q31 0 53 21.5t22 53.5q0 31 -21.5 53
t-53.5 22zM305 260h160l-80 192z" />
    <glyph glyph-name="AE" unicode="&#xc6;" horiz-adv-x="1073" 
d="M1009 640h-345v-155h305v-160h-305v-155h345v-170h-520v170h-210l-73 -170h-186l368 810h621v-170zM344 320h145v336z" />
    <glyph glyph-name="Ccedilla" unicode="&#xc7;" horiz-adv-x="713" 
d="M451 648q-103 0 -174.5 -70.5t-71.5 -172.5t71 -172.5t174 -70.5q112 0 202 101v-220q-78 -44 -162 -51l-31 -35q44 -6 70.5 -36t26.5 -74q0 -48 -31 -79.5t-83 -31.5q-63 0 -101 42l44 59q22 -34 56 -34q18 0 30.5 12t12.5 32q0 22 -13 33.5t-31 11.5q-25 0 -37 -16
l-46 46l51 70q-160 17 -267.5 134.5t-107.5 279.5q0 173 122.5 293.5t297.5 120.5q103 0 199 -53v-219q-90 100 -201 100z" />
    <glyph glyph-name="Egrave" unicode="&#xc8;" horiz-adv-x="668" 
d="M291 879l-110 87l93 80l130 -167h-113zM88 0v810h520v-170h-350v-150h310v-170h-310v-150h350v-170h-520z" />
    <glyph glyph-name="Eacute" unicode="&#xc9;" horiz-adv-x="668" 
d="M291 879l150 187l93 -80l-130 -107h-113zM88 0v810h520v-170h-350v-150h310v-170h-310v-150h350v-170h-520z" />
    <glyph glyph-name="Ecircumflex" unicode="&#xca;" horiz-adv-x="668" 
d="M176 879l110 157h124l110 -157h-104l-68 82l-68 -82h-104zM88 0v810h520v-170h-350v-150h310v-170h-310v-150h350v-170h-520z" />
    <glyph glyph-name="Edieresis" unicode="&#xcb;" horiz-adv-x="668" 
d="M247 889q-29 0 -49 20.5t-20 48.5t20.5 48t48.5 20t48 -20t20 -48t-20 -48.5t-48 -20.5zM449 889q-29 0 -49 20.5t-20 48.5t20.5 48t48.5 20t48 -20t20 -48t-20 -48.5t-48 -20.5zM88 0v810h520v-170h-350v-150h310v-170h-310v-150h350v-170h-520z" />
    <glyph glyph-name="Igrave" unicode="&#xcc;" horiz-adv-x="346" 
d="M116 859l-110 87l93 80l130 -167h-113zM88 0v810h170v-810h-170z" />
    <glyph glyph-name="Iacute" unicode="&#xcd;" horiz-adv-x="346" 
d="M116 859l150 187l93 -80l-130 -107h-113zM88 0v810h170v-810h-170z" />
    <glyph glyph-name="Icircumflex" unicode="&#xce;" horiz-adv-x="346" 
d="M1 859l110 157h124l110 -157h-104l-68 82l-68 -82h-104zM88 0v810h170v-810h-170z" />
    <glyph glyph-name="Idieresis" unicode="&#xcf;" horiz-adv-x="346" 
d="M72 869q-28 0 -48.5 20.5t-20.5 48.5t20.5 48t48.5 20t48 -20t20 -48t-20 -48.5t-48 -20.5zM274 869q-28 0 -48.5 20.5t-20.5 48.5t20.5 48t48.5 20t48 -20t20 -48t-20 -48.5t-48 -20.5zM88 0v810h170v-810h-170z" />
    <glyph glyph-name="Eth" unicode="&#xd0;" horiz-adv-x="770" 
d="M332 810q168 0 286.5 -118.5t118.5 -286.5t-118.5 -286.5t-286.5 -118.5h-244v338h-57v135h57v337h244zM332 170q99 0 167 68t68 167q0 98 -68.5 166.5t-166.5 68.5h-74v-167h181v-135h-181v-168h74z" />
    <glyph glyph-name="Ntilde" unicode="&#xd1;" horiz-adv-x="809" 
d="M280 846l-94 39q33 132 136 132q34 0 60.5 -16.5t49 -32.5t45.5 -16q51 0 56 71l91 -37q-33 -134 -139 -134q-35 0 -63.5 15t-50 30.5t-39.5 15.5q-39 0 -52 -67zM721 -20l-463 452v-432h-170v830l463 -454v434h170v-830z" />
    <glyph glyph-name="Ograve" unicode="&#xd2;" horiz-adv-x="896" 
d="M391 879l-110 87l93 80l130 -167h-113zM448 -10q-172 0 -293.5 121.5t-121.5 293.5t121.5 293.5t293.5 121.5t293.5 -121.5t121.5 -293.5t-121.5 -293.5t-293.5 -121.5zM448 160q102 0 173.5 71.5t71.5 173.5t-71.5 173.5t-173.5 71.5t-173.5 -71.5t-71.5 -173.5
t71.5 -173.5t173.5 -71.5z" />
    <glyph glyph-name="Oacute" unicode="&#xd3;" horiz-adv-x="896" 
d="M391 879l150 187l93 -80l-130 -107h-113zM448 -10q-172 0 -293.5 121.5t-121.5 293.5t121.5 293.5t293.5 121.5t293.5 -121.5t121.5 -293.5t-121.5 -293.5t-293.5 -121.5zM448 160q102 0 173.5 71.5t71.5 173.5t-71.5 173.5t-173.5 71.5t-173.5 -71.5t-71.5 -173.5
t71.5 -173.5t173.5 -71.5z" />
    <glyph glyph-name="Ocircumflex" unicode="&#xd4;" horiz-adv-x="896" 
d="M276 879l110 157h124l110 -157h-104l-68 82l-68 -82h-104zM448 -10q-172 0 -293.5 121.5t-121.5 293.5t121.5 293.5t293.5 121.5t293.5 -121.5t121.5 -293.5t-121.5 -293.5t-293.5 -121.5zM448 160q102 0 173.5 71.5t71.5 173.5t-71.5 173.5t-173.5 71.5t-173.5 -71.5
t-71.5 -173.5t71.5 -173.5t173.5 -71.5z" />
    <glyph glyph-name="Otilde" unicode="&#xd5;" horiz-adv-x="896" 
d="M323 866l-94 39q33 132 136 132q34 0 60.5 -16.5t49 -32.5t45.5 -16q51 0 56 71l91 -37q-33 -134 -139 -134q-35 0 -63.5 15t-50 30.5t-39.5 15.5q-39 0 -52 -67zM448 -10q-172 0 -293.5 121.5t-121.5 293.5t121.5 293.5t293.5 121.5t293.5 -121.5t121.5 -293.5
t-121.5 -293.5t-293.5 -121.5zM448 160q102 0 173.5 71.5t71.5 173.5t-71.5 173.5t-173.5 71.5t-173.5 -71.5t-71.5 -173.5t71.5 -173.5t173.5 -71.5z" />
    <glyph glyph-name="Odieresis" unicode="&#xd6;" horiz-adv-x="896" 
d="M347 889q-29 0 -49 20.5t-20 48.5t20.5 48t48.5 20t48 -20t20 -48t-20 -48.5t-48 -20.5zM549 889q-29 0 -49 20.5t-20 48.5t20.5 48t48.5 20t48 -20t20 -48t-20 -48.5t-48 -20.5zM448 -10q-172 0 -293.5 121.5t-121.5 293.5t121.5 293.5t293.5 121.5t293.5 -121.5
t121.5 -293.5t-121.5 -293.5t-293.5 -121.5zM448 160q102 0 173.5 71.5t71.5 173.5t-71.5 173.5t-173.5 71.5t-173.5 -71.5t-71.5 -173.5t71.5 -173.5t173.5 -71.5z" />
    <glyph glyph-name="multiply" unicode="&#xd7;" horiz-adv-x="591" 
d="M426 41l-132 131l-131 -131l-120 120l131 132l-131 131l120 120l131 -131l133 132l120 -120l-132 -132l131 -132z" />
    <glyph glyph-name="Oslash" unicode="&#xd8;" horiz-adv-x="896" 
d="M778 657q85 -112 85 -252q0 -172 -121.5 -293.5t-293.5 -121.5q-140 0 -252 85l-44 -44l-78 78l44 44q-85 112 -85 252q0 172 121.5 293.5t293.5 121.5q140 0 252 -85l44 44l78 -78zM203 405q0 -69 37 -130l338 338q-61 37 -130 37q-102 0 -173.5 -71.5t-71.5 -173.5z
M448 160q102 0 173.5 71.5t71.5 173.5q0 69 -37 130l-338 -338q61 -37 130 -37z" />
    <glyph glyph-name="Ugrave" unicode="&#xd9;" horiz-adv-x="732" 
d="M309 859l-110 87l93 80l130 -167h-113zM70 810h170v-524q0 -53 36.5 -89.5t89.5 -36.5t89.5 36.5t36.5 89.5v524h170v-524q0 -123 -86.5 -209.5t-209.5 -86.5t-209.5 86.5t-86.5 209.5v524z" />
    <glyph glyph-name="Uacute" unicode="&#xda;" horiz-adv-x="732" 
d="M309 859l150 187l93 -80l-130 -107h-113zM70 810h170v-524q0 -53 36.5 -89.5t89.5 -36.5t89.5 36.5t36.5 89.5v524h170v-524q0 -123 -86.5 -209.5t-209.5 -86.5t-209.5 86.5t-86.5 209.5v524z" />
    <glyph glyph-name="Ucircumflex" unicode="&#xdb;" horiz-adv-x="732" 
d="M194 859l110 157h124l110 -157h-104l-68 82l-68 -82h-104zM70 810h170v-524q0 -53 36.5 -89.5t89.5 -36.5t89.5 36.5t36.5 89.5v524h170v-524q0 -123 -86.5 -209.5t-209.5 -86.5t-209.5 86.5t-86.5 209.5v524z" />
    <glyph glyph-name="Udieresis" unicode="&#xdc;" horiz-adv-x="732" 
d="M265 869q-29 0 -49 20.5t-20 48.5t20.5 48t48.5 20t48 -20t20 -48t-20 -48.5t-48 -20.5zM467 869q-29 0 -49 20.5t-20 48.5t20.5 48t48.5 20t48 -20t20 -48t-20 -48.5t-48 -20.5zM70 810h170v-524q0 -53 36.5 -89.5t89.5 -36.5t89.5 36.5t36.5 89.5v524h170v-524
q0 -123 -86.5 -209.5t-209.5 -86.5t-209.5 86.5t-86.5 209.5v524z" />
    <glyph glyph-name="Yacute" unicode="&#xdd;" horiz-adv-x="676" 
d="M281 859l150 187l93 -80l-130 -107h-113zM253 0v382l-252 428h208l129 -253l130 253h207l-252 -428v-382h-170z" />
    <glyph glyph-name="Thorn" unicode="&#xde;" horiz-adv-x="696" 
d="M415 670q101 0 173 -72t72 -173t-72 -173t-173 -72h-153v-180h-170v810h170v-140h153zM415 350q31 0 53 22t22 53t-22 53t-53 22h-153v-150h153z" />
    <glyph glyph-name="germandbls" unicode="&#xdf;" horiz-adv-x="644" 
d="M367 -6q-36 0 -53 5v169q14 -6 43 -6q46 0 65 24t19 82q0 73 -28.5 105.5t-88.5 33.5v156q19 1 29 16.5t10 37.5q0 51 -47 51q-56 0 -56 -73v-596h-172v616q0 94 60 149.5t161 55.5q98 0 157 -53.5t59 -142.5q0 -74 -43 -122q131 -66 131 -242q0 -126 -65 -196t-181 -70z
" />
    <glyph glyph-name="agrave" unicode="&#xe0;" horiz-adv-x="675" 
d="M295 617l-130 117l113 80l130 -197h-113zM291 -10q-112 0 -190.5 83t-78.5 200t79 200t190 83q85 0 144 -44v32h170v-544h-160l-2 39q-63 -49 -152 -49zM322 142q55 0 92 38t37 93q0 54 -37.5 92t-91.5 38q-55 0 -92.5 -37.5t-37.5 -92.5t38 -93t92 -38z" />
    <glyph glyph-name="aacute" unicode="&#xe1;" horiz-adv-x="675" 
d="M285 621l130 197l113 -80l-130 -117h-113zM291 -10q-112 0 -190.5 83t-78.5 200t79 200t190 83q85 0 144 -44v32h170v-544h-160l-2 39q-63 -49 -152 -49zM322 142q55 0 92 38t37 93q0 54 -37.5 92t-91.5 38q-55 0 -92.5 -37.5t-37.5 -92.5t38 -93t92 -38z" />
    <glyph glyph-name="acircumflex" unicode="&#xe2;" horiz-adv-x="675" 
d="M180 613l110 197h124l110 -197h-104l-68 122l-68 -122h-104zM291 -10q-112 0 -190.5 83t-78.5 200t79 200t190 83q85 0 144 -44v32h170v-544h-160l-2 39q-63 -49 -152 -49zM322 142q55 0 92 38t37 93q0 54 -37.5 92t-91.5 38q-55 0 -92.5 -37.5t-37.5 -92.5t38 -93
t92 -38z" />
    <glyph glyph-name="atilde" unicode="&#xe3;" horiz-adv-x="675" 
d="M227 600l-94 39q33 132 136 132q34 0 60.5 -16.5t49 -32.5t45.5 -16q51 0 56 71l91 -37q-33 -134 -139 -134q-35 0 -63.5 15t-50 30.5t-39.5 15.5q-39 0 -52 -67zM291 -10q-112 0 -190.5 83t-78.5 200t79 200t190 83q85 0 144 -44v32h170v-544h-160l-2 39
q-63 -49 -152 -49zM322 142q55 0 92 38t37 93q0 54 -37.5 92t-91.5 38q-55 0 -92.5 -37.5t-37.5 -92.5t38 -93t92 -38z" />
    <glyph glyph-name="adieresis" unicode="&#xe4;" horiz-adv-x="675" 
d="M251 617q-29 0 -49 20.5t-20 48.5t20.5 48t48.5 20t48 -20t20 -48t-20 -48.5t-48 -20.5zM453 617q-29 0 -49 20.5t-20 48.5t20.5 48t48.5 20t48 -20t20 -48t-20 -48.5t-48 -20.5zM291 -10q-112 0 -190.5 83t-78.5 200t79 200t190 83q85 0 144 -44v32h170v-544h-160l-2 39
q-63 -49 -152 -49zM322 142q55 0 92 38t37 93q0 54 -37.5 92t-91.5 38q-55 0 -92.5 -37.5t-37.5 -92.5t38 -93t92 -38z" />
    <glyph glyph-name="aring" unicode="&#xe5;" horiz-adv-x="675" 
d="M352 594q-65 0 -111.5 45.5t-46.5 112.5q0 65 45.5 111.5t112.5 46.5q65 0 111.5 -45.5t46.5 -112.5q0 -66 -46 -112t-112 -46zM352 677q31 0 53 21.5t22 53.5q0 31 -21.5 53t-53.5 22q-31 0 -53 -21.5t-22 -53.5q0 -31 21.5 -53t53.5 -22zM291 -10q-112 0 -190.5 83
t-78.5 200t79 200t190 83q85 0 144 -44v32h170v-544h-160l-2 39q-63 -49 -152 -49zM322 142q55 0 92 38t37 93q0 54 -37.5 92t-91.5 38q-55 0 -92.5 -37.5t-37.5 -92.5t38 -93t92 -38z" />
    <glyph glyph-name="ae" unicode="&#xe6;" horiz-adv-x="918" 
d="M617 554q120 0 199 -78t80 -199v-1l-2 -47h-382v-27q32 -67 108 -67q67 0 104 51l152 -39q-31 -73 -99.5 -115t-155.5 -42q-128 0 -211 85q-66 -85 -185 -85q-94 0 -148.5 52.5t-54.5 128.5q0 68 56 156h258q1 5 5 20q-4 42 -25.5 58t-66.5 16h-171v123h184
q119 0 179 -47q76 57 176 57zM618 411q-76 0 -107 -66q0 -1 0.5 -3t0.5 -3h208q-28 72 -102 72zM256 114q50 0 85 54v27q-5 15 -6 30h-120q-16 -29 -16 -51q0 -60 57 -60z" />
    <glyph glyph-name="ccedilla" unicode="&#xe7;" horiz-adv-x="495" 
d="M313 396q-56 0 -91 -35t-35 -89q0 -53 35 -88t91 -35q66 0 123 54v-184q-40 -20 -86 -26l-32 -36q44 -6 70.5 -36t26.5 -74q0 -48 -31 -79.5t-83 -31.5q-63 0 -101 42l44 59q22 -34 56 -34q18 0 30.5 12t12.5 32q0 22 -13 33.5t-31 11.5q-25 0 -37 -16l-46 46l51 71
q-106 14 -175.5 92.5t-69.5 186.5q0 119 83 200.5t203 81.5q70 0 128 -29v-184q-55 55 -123 55z" />
    <glyph glyph-name="egrave" unicode="&#xe8;" horiz-adv-x="609" 
d="M361 617h-113l-130 117l113 80zM308 554q120 0 199 -78t80 -199v-1l-2 -47h-392q11 -44 42.5 -69t75.5 -25q67 0 104 51l152 -39q-31 -73 -99.5 -115t-155.5 -42q-124 0 -207 80.5t-83 201.5q0 120 82 201t204 81zM309 411q-79 0 -109 -72h211q-28 72 -102 72z" />
    <glyph glyph-name="eacute" unicode="&#xe9;" horiz-adv-x="609" 
d="M481 738l-130 -117h-113l130 197zM308 554q120 0 199 -78t80 -199v-1l-2 -47h-392q11 -44 42.5 -69t75.5 -25q67 0 104 51l152 -39q-31 -73 -99.5 -115t-155.5 -42q-124 0 -207 80.5t-83 201.5q0 120 82 201t204 81zM309 411q-79 0 -109 -72h211q-28 72 -102 72z" />
    <glyph glyph-name="ecircumflex" unicode="&#xea;" horiz-adv-x="609" 
d="M305 735l-68 -122h-104l110 197h124l110 -197h-104zM308 554q120 0 199 -78t80 -199v-1l-2 -47h-392q11 -44 42.5 -69t75.5 -25q67 0 104 51l152 -39q-31 -73 -99.5 -115t-155.5 -42q-124 0 -207 80.5t-83 201.5q0 120 82 201t204 81zM309 411q-79 0 -109 -72h211
q-28 72 -102 72z" />
    <glyph glyph-name="edieresis" unicode="&#xeb;" horiz-adv-x="609" 
d="M204 617q-28 0 -48.5 20.5t-20.5 48.5t20.5 48t48.5 20t48 -20t20 -48t-20 -48.5t-48 -20.5zM406 617q-28 0 -48.5 20.5t-20.5 48.5t20.5 48t48.5 20t48 -20t20 -48t-20 -48.5t-48 -20.5zM308 554q120 0 199 -78t80 -199v-1l-2 -47h-392q11 -44 42.5 -69t75.5 -25
q67 0 104 51l152 -39q-31 -73 -99.5 -115t-155.5 -42q-124 0 -207 80.5t-83 201.5q0 120 82 201t204 81zM309 411q-79 0 -109 -72h211q-28 72 -102 72z" />
    <glyph glyph-name="igrave" unicode="&#xec;" horiz-adv-x="308" 
d="M98 617l-130 117l113 80l130 -197h-113zM70 0v544h168v-544h-168z" />
    <glyph glyph-name="iacute" unicode="&#xed;" horiz-adv-x="308" 
d="M88 621l130 197l113 -80l-130 -117h-113zM70 0v544h168v-544h-168z" />
    <glyph glyph-name="icircumflex" unicode="&#xee;" horiz-adv-x="308" 
d="M-17 613l110 197h124l110 -197h-104l-68 122l-68 -122h-104zM70 0v544h168v-544h-168z" />
    <glyph glyph-name="idieresis" unicode="&#xef;" horiz-adv-x="308" 
d="M54 617q-28 0 -48.5 20.5t-20.5 48.5t20.5 48t48.5 20t48 -20t20 -48t-20 -48.5t-48 -20.5zM256 617q-28 0 -48.5 20.5t-20.5 48.5t20.5 48t48.5 20t48 -20t20 -48t-20 -48.5t-48 -20.5zM70 0v544h168v-544h-168z" />
    <glyph glyph-name="eth" unicode="&#xf0;" horiz-adv-x="608" 
d="M510 453q64 -102 64 -186q0 -116 -78.5 -197t-190.5 -81t-191.5 81t-79.5 195q0 105 62.5 182t160.5 94l-49 78l-115 -42l-27 73l100 37l-77 124h196l41 -66l140 51l27 -73l-124 -45zM304 159q45 0 76.5 31.5t31.5 76.5t-31.5 76.5t-76.5 31.5t-76.5 -31.5t-31.5 -76.5
t31.5 -76.5t76.5 -31.5z" />
    <glyph glyph-name="ntilde" unicode="&#xf1;" horiz-adv-x="613" 
d="M179 580l-94 39q33 132 136 132q34 0 60.5 -16.5t49 -32.5t45.5 -16q51 0 56 71l91 -37q-33 -134 -139 -134q-35 0 -63.5 15t-50 30.5t-39.5 15.5q-39 0 -52 -67zM70 0v544h169v-34q47 44 115 44q84 0 142.5 -60.5t58.5 -147.5v-346h-170v330q0 31 -20 50.5t-51 19.5
q-32 0 -53 -20t-22 -50v-330h-169z" />
    <glyph glyph-name="ograve" unicode="&#xf2;" horiz-adv-x="617" 
d="M252 617l-130 117l113 80l130 -197h-113zM309 -10q-121 0 -204 81.5t-83 200.5t83 200.5t204 81.5q120 0 203 -82t83 -200t-83 -200t-203 -82zM309 150q50 0 85 35.5t35 86.5q0 50 -35 85.5t-85 35.5q-52 0 -87.5 -35t-35.5 -86t35.5 -86.5t87.5 -35.5z" />
    <glyph glyph-name="oacute" unicode="&#xf3;" horiz-adv-x="617" 
d="M242 621l130 197l113 -80l-130 -117h-113zM309 -10q-121 0 -204 81.5t-83 200.5t83 200.5t204 81.5q120 0 203 -82t83 -200t-83 -200t-203 -82zM309 150q50 0 85 35.5t35 86.5q0 50 -35 85.5t-85 35.5q-52 0 -87.5 -35t-35.5 -86t35.5 -86.5t87.5 -35.5z" />
    <glyph glyph-name="ocircumflex" unicode="&#xf4;" horiz-adv-x="617" 
d="M137 613l110 197h124l110 -197h-104l-68 122l-68 -122h-104zM309 -10q-121 0 -204 81.5t-83 200.5t83 200.5t204 81.5q120 0 203 -82t83 -200t-83 -200t-203 -82zM309 150q50 0 85 35.5t35 86.5q0 50 -35 85.5t-85 35.5q-52 0 -87.5 -35t-35.5 -86t35.5 -86.5t87.5 -35.5
z" />
    <glyph glyph-name="otilde" unicode="&#xf5;" horiz-adv-x="617" 
d="M184 600l-94 39q33 132 136 132q34 0 60.5 -16.5t49 -32.5t45.5 -16q51 0 56 71l91 -37q-33 -134 -139 -134q-35 0 -63.5 15t-50 30.5t-39.5 15.5q-39 0 -52 -67zM309 -10q-121 0 -204 81.5t-83 200.5t83 200.5t204 81.5q120 0 203 -82t83 -200t-83 -200t-203 -82z
M309 150q50 0 85 35.5t35 86.5q0 50 -35 85.5t-85 35.5q-52 0 -87.5 -35t-35.5 -86t35.5 -86.5t87.5 -35.5z" />
    <glyph glyph-name="odieresis" unicode="&#xf6;" horiz-adv-x="617" 
d="M208 617q-28 0 -48.5 20.5t-20.5 48.5t20.5 48t48.5 20t48 -20t20 -48t-20 -48.5t-48 -20.5zM410 617q-28 0 -48.5 20.5t-20.5 48.5t20.5 48t48.5 20t48 -20t20 -48t-20 -48.5t-48 -20.5zM309 -10q-121 0 -204 81.5t-83 200.5t83 200.5t204 81.5q120 0 203 -82t83 -200
t-83 -200t-203 -82zM309 150q50 0 85 35.5t35 86.5q0 50 -35 85.5t-85 35.5q-52 0 -87.5 -35t-35.5 -86t35.5 -86.5t87.5 -35.5z" />
    <glyph glyph-name="divide" unicode="&#xf7;" horiz-adv-x="484" 
d="M242 411q-40 0 -68 27.5t-28 68.5q0 39 28 68t68 29q42 0 69.5 -29t27.5 -68q0 -41 -27.5 -68.5t-69.5 -27.5zM38 242v114h408v-114h-408zM242 -9q-40 0 -68 27.5t-28 68.5q0 39 28 68t68 29q42 0 69.5 -29t27.5 -68q0 -41 -27.5 -68.5t-69.5 -27.5z" />
    <glyph glyph-name="oslash" unicode="&#xf8;" horiz-adv-x="617" 
d="M538 443q57 -74 57 -171q0 -118 -83 -200t-203 -82q-94 0 -171 53l-46 -46l-58 57l46 46q-58 74 -58 172q0 119 83 200.5t204 81.5q95 0 171 -54l47 47l57 -58zM186 272q0 -30 12 -54l163 163q-24 12 -52 12q-52 0 -87.5 -35t-35.5 -86zM309 150q50 0 85 35.5t35 86.5
q0 27 -11 51l-162 -162q25 -11 53 -11z" />
    <glyph glyph-name="ugrave" unicode="&#xf9;" horiz-adv-x="587" 
d="M237 617l-130 117l113 80l130 -197h-113zM293 -10q-109 0 -173.5 59t-64.5 160v335h170v-334q0 -32 18 -49.5t50 -17.5q33 0 51 17.5t18 49.5v334h170v-335q0 -100 -64.5 -159.5t-174.5 -59.5z" />
    <glyph glyph-name="uacute" unicode="&#xfa;" horiz-adv-x="587" 
d="M227 621l130 197l113 -80l-130 -117h-113zM293 -10q-109 0 -173.5 59t-64.5 160v335h170v-334q0 -32 18 -49.5t50 -17.5q33 0 51 17.5t18 49.5v334h170v-335q0 -100 -64.5 -159.5t-174.5 -59.5z" />
    <glyph glyph-name="ucircumflex" unicode="&#xfb;" horiz-adv-x="587" 
d="M122 613l110 197h124l110 -197h-104l-68 122l-68 -122h-104zM293 -10q-109 0 -173.5 59t-64.5 160v335h170v-334q0 -32 18 -49.5t50 -17.5q33 0 51 17.5t18 49.5v334h170v-335q0 -100 -64.5 -159.5t-174.5 -59.5z" />
    <glyph glyph-name="udieresis" unicode="&#xfc;" horiz-adv-x="587" 
d="M193 617q-29 0 -49 20.5t-20 48.5t20.5 48t48.5 20t48 -20t20 -48t-20 -48.5t-48 -20.5zM395 617q-29 0 -49 20.5t-20 48.5t20.5 48t48.5 20t48 -20t20 -48t-20 -48.5t-48 -20.5zM293 -10q-109 0 -173.5 59t-64.5 160v335h170v-334q0 -32 18 -49.5t50 -17.5q33 0 51 17.5
t18 49.5v334h170v-335q0 -100 -64.5 -159.5t-174.5 -59.5z" />
    <glyph glyph-name="yacute" unicode="&#xfd;" horiz-adv-x="558" 
d="M455 738l-130 -117h-113l130 197zM396 544h182l-310 -774h-177l100 256l-212 518h186l113 -309z" />
    <glyph glyph-name="thorn" unicode="&#xfe;" horiz-adv-x="687" 
d="M74 -230v1040h170v-298q60 42 140 42q111 0 189.5 -82.5t78.5 -199.5t-78.5 -199.5t-189.5 -82.5q-80 0 -140 42v-262h-170zM354 142q53 0 91 38t38 92t-38 92t-91 38q-55 0 -92.5 -38t-37.5 -92t37.5 -92t92.5 -38z" />
    <glyph glyph-name="ydieresis" unicode="&#xff;" horiz-adv-x="558" 
d="M178 617q-28 0 -48.5 20.5t-20.5 48.5t20.5 48t48.5 20t48 -20t20 -48t-20 -48.5t-48 -20.5zM380 617q-28 0 -48.5 20.5t-20.5 48.5t20.5 48t48.5 20t48 -20t20 -48t-20 -48.5t-48 -20.5zM396 544h182l-310 -774h-177l100 256l-212 518h186l113 -309z" />
    <glyph glyph-name="Amacron" unicode="&#x100;" horiz-adv-x="770" 
d="M544 983v-104h-318v104h318zM577 0l-45 110h-294l-45 -110h-189l381 830l381 -830h-189zM299 260h172l-86 212z" />
    <glyph glyph-name="amacron" unicode="&#x101;" horiz-adv-x="675" 
d="M193 639v104h318v-104h-318zM291 -10q-112 0 -190.5 83t-78.5 200t79 200t190 83q85 0 144 -44v32h170v-544h-160l-2 39q-63 -49 -152 -49zM322 142q55 0 92 38t37 93q0 54 -37.5 92t-91.5 38q-55 0 -92.5 -37.5t-37.5 -92.5t38 -93t92 -38z" />
    <glyph glyph-name="Abreve" unicode="&#x102;" horiz-adv-x="770" 
d="M392 839q-79 0 -131.5 50.5t-52.5 126.5v15h99v-15q0 -32 22.5 -55t54.5 -23t55 23t23 55v15h99v-15q0 -73 -50 -125t-119 -52zM577 0l-45 110h-294l-45 -110h-189l381 830l381 -830h-189zM299 260h172l-86 212z" />
    <glyph glyph-name="abreve" unicode="&#x103;" horiz-adv-x="675" 
d="M359 612q-79 0 -131.5 50.5t-52.5 126.5v25h99v-25q0 -32 22.5 -55t54.5 -23t55 23t23 55v25h99v-25q0 -73 -50 -125t-119 -52zM291 -10q-112 0 -190.5 83t-78.5 200t79 200t190 83q85 0 144 -44v32h170v-544h-160l-2 39q-63 -49 -152 -49zM322 142q55 0 92 38t37 93
q0 54 -37.5 92t-91.5 38q-55 0 -92.5 -37.5t-37.5 -92.5t38 -93t92 -38z" />
    <glyph glyph-name="Aogonek" unicode="&#x104;" horiz-adv-x="770" 
d="M749 -106l63 -71q-48 -57 -118 -57q-50 0 -85.5 32t-35.5 85q0 74 67 117h-63l-45 110h-294l-45 -110h-189l381 830l381 -830q-56 -6 -83.5 -32.5t-27.5 -59.5q0 -21 11 -32t28 -11q30 0 55 29zM299 260h172l-86 212z" />
    <glyph glyph-name="aogonek" unicode="&#x105;" horiz-adv-x="675" 
d="M601 -106l63 -71q-48 -57 -118 -57q-50 0 -85.5 32t-35.5 85q0 74 67 117h-47l-2 39q-63 -49 -152 -49q-112 0 -190.5 83t-78.5 200t79 200t190 83q85 0 144 -44v32h170v-537l13 -7q-56 -6 -83.5 -32.5t-27.5 -59.5q0 -21 11 -32t28 -11q30 0 55 29zM322 142q55 0 92 38
t37 93q0 54 -37.5 92t-91.5 38q-55 0 -92.5 -37.5t-37.5 -92.5t38 -93t92 -38z" />
    <glyph glyph-name="Cacute" unicode="&#x106;" horiz-adv-x="713" 
d="M374 879l150 187l93 -80l-130 -107h-113zM453 -10q-175 0 -297.5 121.5t-122.5 294.5t122.5 293.5t297.5 120.5q103 0 199 -53v-219q-90 100 -201 100q-103 0 -174.5 -70.5t-71.5 -172.5t71 -172.5t174 -70.5q112 0 202 101v-220q-96 -53 -199 -53z" />
    <glyph glyph-name="cacute" unicode="&#x107;" horiz-adv-x="495" 
d="M242 621l130 197l113 -80l-130 -117h-113zM308 -10q-120 0 -203 81.5t-83 200.5t83 200.5t203 81.5q70 0 128 -29v-184q-55 55 -123 55q-56 0 -91 -35t-35 -89q0 -53 35 -88t91 -35q66 0 123 54v-184q-58 -29 -128 -29z" />
    <glyph glyph-name="Cdotaccent" unicode="&#x10a;" horiz-adv-x="713" 
d="M431 869q-29 0 -49 20.5t-20 48.5t20.5 48t48.5 20t48 -20t20 -48t-20 -48.5t-48 -20.5zM453 -10q-175 0 -297.5 121.5t-122.5 294.5t122.5 293.5t297.5 120.5q103 0 199 -53v-219q-90 100 -201 100q-103 0 -174.5 -70.5t-71.5 -172.5t71 -172.5t174 -70.5q112 0 202 101
v-220q-96 -53 -199 -53z" />
    <glyph glyph-name="cdotaccent" unicode="&#x10b;" horiz-adv-x="495" 
d="M309 630q-40 0 -68 28t-28 67t28 67t68 28t68 -27.5t28 -67.5t-28 -67.5t-68 -27.5zM308 -10q-120 0 -203 81.5t-83 200.5t83 200.5t203 81.5q70 0 128 -29v-184q-55 55 -123 55q-56 0 -91 -35t-35 -89q0 -53 35 -88t91 -35q66 0 123 54v-184q-58 -29 -128 -29z" />
    <glyph glyph-name="Ccaron" unicode="&#x10c;" horiz-adv-x="713" 
d="M369 879l-110 167h104l68 -92l68 92h104l-110 -167h-124zM453 -10q-175 0 -297.5 121.5t-122.5 294.5t122.5 293.5t297.5 120.5q103 0 199 -53v-219q-90 100 -201 100q-103 0 -174.5 -70.5t-71.5 -172.5t71 -172.5t174 -70.5q112 0 202 101v-220q-96 -53 -199 -53z" />
    <glyph glyph-name="ccaron" unicode="&#x10d;" horiz-adv-x="495" 
d="M247 613l-110 197h104l68 -122l68 122h104l-110 -197h-124zM308 -10q-120 0 -203 81.5t-83 200.5t83 200.5t203 81.5q70 0 128 -29v-184q-55 55 -123 55q-56 0 -91 -35t-35 -89q0 -53 35 -88t91 -35q66 0 123 54v-184q-58 -29 -128 -29z" />
    <glyph glyph-name="Dcaron" unicode="&#x10e;" horiz-adv-x="770" 
d="M270 879l-110 167h104l68 -92l68 92h104l-110 -167h-124zM88 0v810h244q168 0 286.5 -118.5t118.5 -286.5t-118.5 -286.5t-286.5 -118.5h-244zM258 170h74q99 0 167 68t68 167q0 98 -68.5 166.5t-166.5 68.5h-74v-470z" />
    <glyph glyph-name="dcaron" unicode="&#x10f;" horiz-adv-x="784" 
d="M296 -10q-114 0 -193 82t-79 201q0 118 79.5 200.5t192.5 82.5q80 0 141 -44v298h170v-810h-160l-2 39q-63 -49 -149 -49zM678 513l30 297h175l-100 -297h-105zM318 145q52 0 88 37t36 91q0 53 -36 90t-88 37q-53 0 -88.5 -36.5t-35.5 -90.5t36 -91t88 -37z" />
    <glyph glyph-name="Dcroat" unicode="&#x110;" horiz-adv-x="770" 
d="M332 810q168 0 286.5 -118.5t118.5 -286.5t-118.5 -286.5t-286.5 -118.5h-244v338h-57v135h57v337h244zM332 170q99 0 167 68t68 167q0 98 -68.5 166.5t-166.5 68.5h-74v-167h181v-135h-181v-168h74z" />
    <glyph glyph-name="dcroat" unicode="&#x111;" horiz-adv-x="675" 
d="M683 734v-94h-78v-640h-160l-2 39q-63 -49 -149 -49q-114 0 -193 82t-79 201q0 118 79.5 200.5t192.5 82.5q80 0 141 -44v128h-160v94h160v76h170v-76h78zM322 139q55 0 92.5 38.5t37.5 95.5q0 56 -37.5 94.5t-92.5 38.5t-92.5 -38t-37.5 -95t37.5 -95.5t92.5 -38.5z" />
    <glyph glyph-name="Emacron" unicode="&#x112;" horiz-adv-x="668" 
d="M189 879v104h318v-104h-318zM88 0v810h520v-170h-350v-150h310v-170h-310v-150h350v-170h-520z" />
    <glyph glyph-name="emacron" unicode="&#x113;" horiz-adv-x="609" 
d="M464 743v-104h-318v104h318zM308 554q120 0 199 -78t80 -199v-1l-2 -47h-392q11 -44 42.5 -69t75.5 -25q67 0 104 51l152 -39q-31 -73 -99.5 -115t-155.5 -42q-124 0 -207 80.5t-83 201.5q0 120 82 201t204 81zM309 411q-79 0 -109 -72h211q-28 72 -102 72z" />
    <glyph glyph-name="Edotaccent" unicode="&#x116;" horiz-adv-x="668" 
d="M348 869q-28 0 -48.5 20.5t-20.5 48.5t20.5 48t48.5 20t48 -20t20 -48t-20 -48.5t-48 -20.5zM88 0v810h520v-170h-350v-150h310v-170h-310v-150h350v-170h-520z" />
    <glyph glyph-name="edotaccent" unicode="&#x117;" horiz-adv-x="609" 
d="M305 630q-40 0 -68 28t-28 67t28 67t68 28t68 -27.5t28 -67.5t-28 -67.5t-68 -27.5zM308 554q120 0 199 -78t80 -199v-1l-2 -47h-392q11 -44 42.5 -69t75.5 -25q67 0 104 51l152 -39q-31 -73 -99.5 -115t-155.5 -42q-124 0 -207 80.5t-83 201.5q0 120 82 201t204 81z
M309 411q-79 0 -109 -72h211q-28 72 -102 72z" />
    <glyph glyph-name="Eogonek" unicode="&#x118;" horiz-adv-x="668" 
d="M591 -106l63 -71q-48 -57 -118 -57q-50 0 -85.5 32t-35.5 85q0 74 67 117h-394v810h520v-170h-350v-150h310v-170h-310v-150h350v-170q-56 -6 -83.5 -32.5t-27.5 -59.5q0 -21 11 -32t28 -11q30 0 55 29z" />
    <glyph glyph-name="eogonek" unicode="&#x119;" horiz-adv-x="609" 
d="M308 554q120 0 199 -78t80 -199v-1l-2 -47h-392q11 -44 42.5 -69t75.5 -25q67 0 104 51l152 -39q-28 -65 -84.5 -105.5t-130.5 -49.5q-48 -25 -48 -73q0 -21 11 -32t28 -11q30 0 55 29l63 -71q-48 -57 -118 -57q-50 0 -85.5 32t-35.5 85q0 59 44 99q-107 15 -175.5 92.5
t-68.5 186.5q0 120 82 201t204 81zM309 411q-79 0 -109 -72h211q-28 72 -102 72z" />
    <glyph glyph-name="Ecaron" unicode="&#x11a;" horiz-adv-x="668" 
d="M286 879l-110 167h104l68 -92l68 92h104l-110 -167h-124zM88 0v810h520v-170h-350v-150h310v-170h-310v-150h350v-170h-520z" />
    <glyph glyph-name="ecaron" unicode="&#x11b;" horiz-adv-x="609" 
d="M367 613h-124l-110 197h104l68 -122l68 122h104zM308 554q120 0 199 -78t80 -199v-1l-2 -47h-392q11 -44 42.5 -69t75.5 -25q67 0 104 51l152 -39q-31 -73 -99.5 -115t-155.5 -42q-124 0 -207 80.5t-83 201.5q0 120 82 201t204 81zM309 411q-79 0 -109 -72h211
q-28 72 -102 72z" />
    <glyph glyph-name="Gbreve" unicode="&#x11e;" horiz-adv-x="808" 
d="M425 839q-79 0 -131.5 50.5t-52.5 126.5v15h99v-15q0 -32 22.5 -55t54.5 -23t55 23t23 55v15h99v-15q0 -73 -50 -125t-119 -52zM452 -10q-175 0 -297 121t-122 294t122 294t296 121q175 0 302 -132l-121 -121q-75 81 -181 81q-103 0 -174.5 -70.5t-71.5 -172.5t71 -172.5
t174 -70.5q75 0 136 41v117h-156v170h317v-384q-135 -116 -295 -116z" />
    <glyph glyph-name="gbreve" unicode="&#x11f;" horiz-adv-x="678" 
d="M342 592q-79 0 -131.5 50.5t-52.5 126.5v25h99v-25q0 -32 22.5 -55t54.5 -23t55 23t23 55v25h99v-25q0 -73 -50 -125t-119 -52zM437 544h171v-494q0 -128 -79 -209t-208 -81q-179 0 -272 130l125 91q26 -40 58.5 -57.5t84.5 -17.5q55 0 85.5 35.5t34.5 103.5
q-55 -50 -137 -50q-118 0 -198 79.5t-80 197.5t80 200t195 82q81 0 140 -42v32zM322 137q56 0 95.5 39.5t39.5 95.5q0 57 -39.5 96t-95.5 39t-95 -38.5t-39 -96.5q0 -57 39 -96t95 -39z" />
    <glyph glyph-name="Gdotaccent" unicode="&#x120;" horiz-adv-x="808" 
d="M418 869q-28 0 -48.5 20.5t-20.5 48.5t20.5 48t48.5 20t48 -20t20 -48t-20 -48.5t-48 -20.5zM452 -10q-175 0 -297 121t-122 294t122 294t296 121q175 0 302 -132l-121 -121q-75 81 -181 81q-103 0 -174.5 -70.5t-71.5 -172.5t71 -172.5t174 -70.5q75 0 136 41v117h-156
v170h317v-384q-135 -116 -295 -116z" />
    <glyph glyph-name="gdotaccent" unicode="&#x121;" horiz-adv-x="678" 
d="M335 610q-40 0 -68 28t-28 67t28 67t68 28t68 -27.5t28 -67.5t-28 -67.5t-68 -27.5zM437 544h171v-494q0 -128 -79 -209t-208 -81q-179 0 -272 130l125 91q26 -40 58.5 -57.5t84.5 -17.5q55 0 85.5 35.5t34.5 103.5q-55 -50 -137 -50q-118 0 -198 79.5t-80 197.5t80 200
t195 82q81 0 140 -42v32zM322 137q56 0 95.5 39.5t39.5 95.5q0 57 -39.5 96t-95.5 39t-95 -38.5t-39 -96.5q0 -57 39 -96t95 -39z" />
    <glyph glyph-name="Gcommaaccent" unicode="&#x122;" horiz-adv-x="808" 
d="M452 -10q-175 0 -297 121t-122 294t122 294t296 121q175 0 302 -132l-121 -121q-75 81 -181 81q-103 0 -174.5 -70.5t-71.5 -172.5t71 -172.5t174 -70.5q75 0 136 41v117h-156v170h317v-384q-135 -116 -295 -116zM386 -297l30 227h133l-110 -227h-53z" />
    <glyph glyph-name="gcommaaccent" unicode="&#x123;" horiz-adv-x="678" 
d="M411 856v-247h-153l80 247h73zM437 544h171v-494q0 -128 -79 -209t-208 -81q-179 0 -272 130l125 91q26 -40 58.5 -57.5t84.5 -17.5q55 0 85.5 35.5t34.5 103.5q-55 -50 -137 -50q-118 0 -198 79.5t-80 197.5t80 200t195 82q81 0 140 -42v32zM322 137q56 0 95.5 39.5
t39.5 95.5q0 57 -39.5 96t-95.5 39t-95 -38.5t-39 -96.5q0 -57 39 -96t95 -39z" />
    <glyph glyph-name="Hbar" unicode="&#x126;" horiz-adv-x="757" 
d="M698 708v-104h-29v-604h-170v320h-241v-320h-170v604h-28v104h28v102h170v-102h241v102h170v-102h29zM499 490v114h-241v-114h241z" />
    <glyph glyph-name="hbar" unicode="&#x127;" horiz-adv-x="611" 
d="M351 554q86 0 145 -60t59 -148v-346h-170v332q0 29 -19.5 47.5t-49.5 18.5q-33 0 -54.5 -19t-22.5 -48v-331h-169v640h-61v94h61v76h169v-76h178v-94h-178v-120q51 34 112 34z" />
    <glyph glyph-name="Itilde" unicode="&#x128;" horiz-adv-x="346" 
d="M48 846l-94 39q33 132 136 132q34 0 60.5 -16.5t49 -32.5t45.5 -16q51 0 56 71l91 -37q-33 -134 -139 -134q-35 0 -63.5 15t-50 30.5t-39.5 15.5q-39 0 -52 -67zM88 0v810h170v-810h-170z" />
    <glyph glyph-name="itilde" unicode="&#x129;" horiz-adv-x="308" 
d="M30 600l-94 39q33 132 136 132q34 0 60.5 -16.5t49 -32.5t45.5 -16q51 0 56 71l91 -37q-33 -134 -139 -134q-35 0 -63.5 15t-50 30.5t-39.5 15.5q-39 0 -52 -67zM70 0v544h168v-544h-168z" />
    <glyph glyph-name="Imacron" unicode="&#x12a;" horiz-adv-x="346" 
d="M14 859v104h318v-104h-318zM88 0v810h170v-810h-170z" />
    <glyph glyph-name="imacron" unicode="&#x12b;" horiz-adv-x="308" 
d="M-4 639v104h318v-104h-318zM70 0v544h168v-544h-168z" />
    <glyph glyph-name="Iogonek" unicode="&#x12e;" horiz-adv-x="346" 
d="M221 -86l63 -71q-48 -57 -118 -57q-50 0 -85.5 32t-35.5 85q0 58 43 98v809h170v-810h-86q-45 -27 -45 -72q0 -21 11 -32t28 -11q30 0 55 29z" />
    <glyph glyph-name="iogonek" unicode="&#x12f;" horiz-adv-x="308" 
d="M155 630q-40 0 -68 28t-28 67t28 67t68 28t68 -27.5t28 -67.5t-28 -67.5t-68 -27.5zM221 -106l63 -71q-48 -57 -118 -57q-50 0 -85.5 32t-35.5 85q0 74 67 117h-42v544h168v-544q-56 -6 -83.5 -32.5t-27.5 -59.5q0 -21 11 -32t28 -11q30 0 55 29z" />
    <glyph glyph-name="Idotaccent" unicode="&#x130;" horiz-adv-x="346" 
d="M173 849q-29 0 -49 20.5t-20 48.5t20.5 48t48.5 20t48 -20t20 -48t-20 -48.5t-48 -20.5zM88 0v810h170v-810h-170z" />
    <glyph glyph-name="dotlessi" unicode="&#x131;" horiz-adv-x="308" 
d="M70 0v544h168v-544h-168z" />
    <glyph glyph-name="Kcommaaccent" unicode="&#x136;" horiz-adv-x="702" 
d="M406 438l287 -438h-205l-230 359v-359h-170v810h170v-301l225 301h209zM230 -277l30 227h133l-110 -227h-53z" />
    <glyph glyph-name="kcommaaccent" unicode="&#x137;" horiz-adv-x="596" 
d="M617 544l-223 -242l216 -302h-217l-153 228v-228h-170v810h170v-444l155 178h222zM198 -277l30 227h133l-110 -227h-53z" />
    <glyph glyph-name="Lacute" unicode="&#x139;" horiz-adv-x="565" 
d="M116 879l150 187l93 -80l-130 -107h-113zM88 0v810h170v-640h290v-170h-460z" />
    <glyph glyph-name="lacute" unicode="&#x13a;" horiz-adv-x="309" 
d="M88 867l130 197l113 -80l-130 -117h-113zM70 0v810h169v-810h-169z" />
    <glyph glyph-name="Lcommaaccent" unicode="&#x13b;" horiz-adv-x="565" 
d="M88 0v810h170v-640h290v-170h-460zM221 -297l30 227h133l-110 -227h-53z" />
    <glyph glyph-name="lcommaaccent" unicode="&#x13c;" horiz-adv-x="309" 
d="M70 0v810h169v-810h-169zM58 -277l30 227h133l-110 -227h-53z" />
    <glyph glyph-name="Lcaron" unicode="&#x13d;" horiz-adv-x="596" 
d="M88 0v810h170v-640h290v-170h-460zM351 473v337h177l-57 -337h-120z" />
    <glyph glyph-name="lcaron" unicode="&#x13e;" horiz-adv-x="469" 
d="M70 0v810h169v-810h-169zM442 473h-119l34 337h199z" />
    <glyph glyph-name="Lslash" unicode="&#x141;" horiz-adv-x="565" 
d="M258 170h290v-170h-460v303l-67 -24l-44 118l111 40v373h170v-311l85 31l45 -118l-130 -47v-195z" />
    <glyph glyph-name="lslash" unicode="&#x142;" horiz-adv-x="309" 
d="M343 427l-104 -38v-389h-169v328l-63 -23l-41 108l104 38v359h169v-298l63 23z" />
    <glyph glyph-name="Nacute" unicode="&#x143;" horiz-adv-x="809" 
d="M348 859l150 187l93 -80l-130 -107h-113zM721 -20l-463 452v-432h-170v830l463 -454v434h170v-830z" />
    <glyph glyph-name="nacute" unicode="&#x144;" horiz-adv-x="613" 
d="M237 601l130 197l113 -80l-130 -117h-113zM70 0v544h169v-34q47 44 115 44q84 0 142.5 -60.5t58.5 -147.5v-346h-170v330q0 31 -20 50.5t-51 19.5q-32 0 -53 -20t-22 -50v-330h-169z" />
    <glyph glyph-name="Ncommaaccent" unicode="&#x145;" horiz-adv-x="809" 
d="M721 -20l-463 452v-432h-170v830l463 -454v434h170v-830zM308 -277l30 227h133l-110 -227h-53z" />
    <glyph glyph-name="ncommaaccent" unicode="&#x146;" horiz-adv-x="613" 
d="M70 0v544h169v-34q47 44 115 44q84 0 142.5 -60.5t58.5 -147.5v-346h-170v330q0 31 -20 50.5t-51 19.5q-32 0 -53 -20t-22 -50v-330h-169zM207 -277l30 227h133l-110 -227h-53z" />
    <glyph glyph-name="Ncaron" unicode="&#x147;" horiz-adv-x="809" 
d="M343 859l-110 167h104l68 -92l68 92h104l-110 -167h-124zM721 -20l-463 452v-432h-170v830l463 -454v434h170v-830z" />
    <glyph glyph-name="ncaron" unicode="&#x148;" horiz-adv-x="613" 
d="M242 593l-110 197h104l68 -122l68 122h104l-110 -197h-124zM70 0v544h169v-34q47 44 115 44q84 0 142.5 -60.5t58.5 -147.5v-346h-170v330q0 31 -20 50.5t-51 19.5q-32 0 -53 -20t-22 -50v-330h-169z" />
    <glyph glyph-name="Eng" unicode="&#x14a;" horiz-adv-x="809" 
d="M551 810h170v-830q0 -75 -46 -116t-131 -41h-100v130h73q39 0 39 50v138l-298 291v-432h-170v830l463 -454v434z" />
    <glyph glyph-name="eng" unicode="&#x14b;" horiz-adv-x="621" 
d="M555 346v-346h-3v-27q0 -162 -204 -162h-64v125h61q27 0 32 16t5 88h3v290q0 31 -20 50.5t-51 19.5q-32 0 -53 -20t-22 -50v-330h-169v544h169v-34q47 44 115 44q84 0 142.5 -60.5t58.5 -147.5z" />
    <glyph glyph-name="Omacron" unicode="&#x14c;" horiz-adv-x="896" 
d="M289 879v104h318v-104h-318zM448 -10q-172 0 -293.5 121.5t-121.5 293.5t121.5 293.5t293.5 121.5t293.5 -121.5t121.5 -293.5t-121.5 -293.5t-293.5 -121.5zM448 160q102 0 173.5 71.5t71.5 173.5t-71.5 173.5t-173.5 71.5t-173.5 -71.5t-71.5 -173.5t71.5 -173.5
t173.5 -71.5z" />
    <glyph glyph-name="omacron" unicode="&#x14d;" horiz-adv-x="617" 
d="M150 639v104h318v-104h-318zM309 -10q-121 0 -204 81.5t-83 200.5t83 200.5t204 81.5q120 0 203 -82t83 -200t-83 -200t-203 -82zM309 150q50 0 85 35.5t35 86.5q0 50 -35 85.5t-85 35.5q-52 0 -87.5 -35t-35.5 -86t35.5 -86.5t87.5 -35.5z" />
    <glyph glyph-name="Ohungarumlaut" unicode="&#x150;" horiz-adv-x="896" 
d="M394 879h-113l150 187l93 -80zM614 879h-113l150 187l93 -80zM448 -10q-172 0 -293.5 121.5t-121.5 293.5t121.5 293.5t293.5 121.5t293.5 -121.5t121.5 -293.5t-121.5 -293.5t-293.5 -121.5zM448 160q102 0 173.5 71.5t71.5 173.5t-71.5 173.5t-173.5 71.5t-173.5 -71.5
t-71.5 -173.5t71.5 -173.5t173.5 -71.5z" />
    <glyph glyph-name="ohungarumlaut" unicode="&#x151;" horiz-adv-x="617" 
d="M225 617h-113l130 197l113 -80zM445 617h-113l130 197l113 -80zM309 -10q-121 0 -204 81.5t-83 200.5t83 200.5t204 81.5q120 0 203 -82t83 -200t-83 -200t-203 -82zM309 150q50 0 85 35.5t35 86.5q0 50 -35 85.5t-85 35.5q-52 0 -87.5 -35t-35.5 -86t35.5 -86.5
t87.5 -35.5z" />
    <glyph glyph-name="OE" unicode="&#x152;" horiz-adv-x="1305" 
d="M1245 640h-350v-150h310v-170h-310v-150h350v-170h-520v96q-117 -106 -277 -106q-172 0 -293.5 121.5t-121.5 293.5t121.5 293.5t293.5 121.5q160 0 277 -106v96h520v-170zM448 160q102 0 173.5 71.5t71.5 173.5t-71.5 173.5t-173.5 71.5t-173.5 -71.5t-71.5 -173.5
t71.5 -173.5t173.5 -71.5z" />
    <glyph glyph-name="oe" unicode="&#x153;" horiz-adv-x="1016" 
d="M715 554q120 0 199 -78t80 -199v-1l-2 -47h-392q11 -44 42.5 -69t75.5 -25q67 0 104 51l152 -39q-31 -73 -99.5 -115t-155.5 -42q-125 0 -208 81q-83 -81 -202 -81q-121 0 -204 81.5t-83 200.5t83 200.5t204 81.5q119 0 202 -81q83 81 204 81zM716 411q-79 0 -109 -72
h211q-28 72 -102 72zM309 150q50 0 85 35.5t35 86.5q0 50 -35 85.5t-85 35.5q-52 0 -87.5 -35t-35.5 -86t35.5 -86.5t87.5 -35.5z" />
    <glyph glyph-name="Racute" unicode="&#x154;" horiz-adv-x="716" 
d="M536 986l-130 -107h-113l150 187zM696 0h-197l-158 285h-83v-285h-170v810h307q112 0 187 -75t75 -187q0 -79 -38.5 -141.5t-103.5 -94.5zM258 640v-185h137q42 0 67 25t25 68q0 42 -25 67t-67 25h-137z" />
    <glyph glyph-name="racute" unicode="&#x155;" horiz-adv-x="384" 
d="M165 621l130 197l113 -80l-130 -117h-113zM374 388q-135 31 -135 -95v-293h-169v544h169v-43q17 23 49.5 38t66.5 15q13 0 19 -1v-165z" />
    <glyph glyph-name="Rcommaaccent" unicode="&#x156;" horiz-adv-x="716" 
d="M515 312l181 -312h-197l-158 285h-83v-285h-170v810h307q112 0 187 -75t75 -187q0 -79 -38.5 -141.5t-103.5 -94.5zM258 640v-185h137q42 0 67 25t25 68q0 42 -25 67t-67 25h-137zM282 -297l30 227h133l-110 -227h-53z" />
    <glyph glyph-name="rcommaaccent" unicode="&#x157;" horiz-adv-x="384" 
d="M374 388q-135 31 -135 -95v-293h-169v544h169v-43q17 23 49.5 38t66.5 15q13 0 19 -1v-165zM58 -297l30 227h133l-110 -227h-53z" />
    <glyph glyph-name="Rcaron" unicode="&#x158;" horiz-adv-x="716" 
d="M412 879h-124l-110 167h104l68 -92l68 92h104zM696 0h-197l-158 285h-83v-285h-170v810h307q112 0 187 -75t75 -187q0 -79 -38.5 -141.5t-103.5 -94.5zM258 640v-185h137q42 0 67 25t25 68q0 42 -25 67t-67 25h-137z" />
    <glyph glyph-name="rcaron" unicode="&#x159;" horiz-adv-x="384" 
d="M170 613l-110 197h104l68 -122l68 122h104l-110 -197h-124zM374 388q-135 31 -135 -95v-293h-169v544h169v-43q17 23 49.5 38t66.5 15q13 0 19 -1v-165z" />
    <glyph glyph-name="Sacute" unicode="&#x15a;" horiz-adv-x="586" 
d="M234 881l150 187l93 -80l-130 -107h-113zM296 -10q-100 0 -177 58t-99 151l148 67q13 -54 46 -84.5t77 -30.5q45 0 68.5 28t23.5 64q0 22 -9 39.5t-31.5 33t-39 24t-51.5 24.5q-34 16 -53.5 26t-48.5 31t-45 42.5t-28 55t-12 74.5q0 102 64.5 164.5t165.5 62.5
q78 0 140 -39.5t89 -114.5l-140 -62q-32 65 -83 65q-29 0 -47 -18t-18 -44q0 -12 4 -23t13.5 -21t17.5 -17t24.5 -16t26 -13.5t30.5 -14.5t30 -14q37 -18 63.5 -35.5t53.5 -45t41.5 -67t14.5 -89.5q0 -116 -73 -188.5t-186 -72.5z" />
    <glyph glyph-name="sacute" unicode="&#x15b;" horiz-adv-x="480" 
d="M169 617l130 197l113 -80l-130 -117h-113zM245 -10q-125 0 -231 75l96 118q77 -51 135 -51q40 0 40 29q0 8 -3 14t-12.5 11t-16.5 8t-26.5 9.5t-30.5 10.5q-84 31 -120 69t-36 96q0 79 56.5 127t145.5 48q114 0 209 -77l-101 -102q-63 47 -115 47q-31 0 -31 -26
q0 -14 14 -22t69 -27q35 -12 59 -24t50.5 -32t40 -51t13.5 -71q0 -82 -56 -130.5t-149 -48.5z" />
    <glyph glyph-name="Scedilla" unicode="&#x15e;" horiz-adv-x="586" 
d="M555 251q0 -107 -62 -177.5t-162 -81.5l-31 -35q44 -6 70.5 -36t26.5 -74q0 -48 -31 -79.5t-83 -31.5q-63 0 -101 42l44 59q22 -34 56 -34q18 0 30.5 12t12.5 32q0 22 -13 33.5t-31 11.5q-25 0 -37 -16l-46 46l52 71q-86 14 -148.5 69t-81.5 137l148 67q13 -54 46 -84.5
t77 -30.5q45 0 68.5 28t23.5 64q0 22 -9 39.5t-31.5 33t-39 24t-51.5 24.5q-34 16 -53.5 26t-48.5 31t-45 42.5t-28 55t-12 74.5q0 102 64.5 164.5t165.5 62.5q78 0 140 -39.5t89 -114.5l-140 -62q-32 65 -83 65q-29 0 -47 -18t-18 -44q0 -12 4 -23t13.5 -21t17.5 -17
t24.5 -16t26 -13.5t30.5 -14.5t30 -14q37 -18 63.5 -35.5t53.5 -45t41.5 -67t14.5 -89.5z" />
    <glyph glyph-name="scedilla" unicode="&#x15f;" horiz-adv-x="480" 
d="M287 347q35 -12 59 -24t50.5 -32t40 -51t13.5 -71q0 -73 -45 -120t-122 -57l-31 -35q44 -6 70.5 -36t26.5 -74q0 -48 -31 -79.5t-83 -31.5q-63 0 -101 42l44 59q22 -34 56 -34q18 0 30.5 12t12.5 32q0 22 -13 33.5t-31 11.5q-25 0 -37 -16l-46 46l51 71q-105 13 -187 72
l96 118q77 -51 135 -51q40 0 40 29q0 8 -3 14t-12.5 11t-16.5 8t-26.5 9.5t-30.5 10.5q-84 31 -120 69t-36 96q0 79 56.5 127t145.5 48q114 0 209 -77l-101 -102q-63 47 -115 47q-31 0 -31 -26q0 -14 14 -22t69 -27z" />
    <glyph glyph-name="Scaron" unicode="&#x160;" horiz-adv-x="586" 
d="M229 881l-110 167h104l68 -92l68 92h104l-110 -167h-124zM296 -10q-100 0 -177 58t-99 151l148 67q13 -54 46 -84.5t77 -30.5q45 0 68.5 28t23.5 64q0 22 -9 39.5t-31.5 33t-39 24t-51.5 24.5q-34 16 -53.5 26t-48.5 31t-45 42.5t-28 55t-12 74.5q0 102 64.5 164.5
t165.5 62.5q78 0 140 -39.5t89 -114.5l-140 -62q-32 65 -83 65q-29 0 -47 -18t-18 -44q0 -12 4 -23t13.5 -21t17.5 -17t24.5 -16t26 -13.5t30.5 -14.5t30 -14q37 -18 63.5 -35.5t53.5 -45t41.5 -67t14.5 -89.5q0 -116 -73 -188.5t-186 -72.5z" />
    <glyph glyph-name="scaron" unicode="&#x161;" horiz-adv-x="480" 
d="M174 609l-110 197h104l68 -122l68 122h104l-110 -197h-124zM245 -10q-125 0 -231 75l96 118q77 -51 135 -51q40 0 40 29q0 8 -3 14t-12.5 11t-16.5 8t-26.5 9.5t-30.5 10.5q-84 31 -120 69t-36 96q0 79 56.5 127t145.5 48q114 0 209 -77l-101 -102q-63 47 -115 47
q-31 0 -31 -26q0 -14 14 -22t69 -27q35 -12 59 -24t50.5 -32t40 -51t13.5 -71q0 -82 -56 -130.5t-149 -48.5z" />
    <glyph glyph-name="uni0162" unicode="&#x162;" horiz-adv-x="599" 
d="M385 0h-56l-20 -23q44 -6 70.5 -36t26.5 -74q0 -48 -31 -79.5t-83 -31.5q-63 0 -101 42l44 59q22 -34 56 -34q18 0 30.5 12t12.5 32q0 22 -13 33.5t-31 11.5q-25 0 -37 -16l-46 46l42 58h-34v640h-198v170h565v-170h-197v-640z" />
    <glyph glyph-name="uni0163" unicode="&#x163;" horiz-adv-x="383" 
d="M277 0h-38l-38 -43q44 -6 70.5 -36t26.5 -74q0 -48 -31 -79.5t-83 -31.5q-63 0 -101 42l44 59q22 -34 56 -34q18 0 30.5 12t12.5 32q0 22 -13 33.5t-31 11.5q-25 0 -37 -16l-46 46l56 78h-48v399h-99v145h99v181h170v-181h98v-145h-98v-399z" />
    <glyph glyph-name="Tcaron" unicode="&#x164;" horiz-adv-x="599" 
d="M238 859l-110 167h104l68 -92l68 92h104l-110 -167h-124zM215 0v640h-198v170h565v-170h-197v-640h-170z" />
    <glyph glyph-name="tcaron" unicode="&#x165;" horiz-adv-x="407" 
d="M496 636h-105l30 297h175zM107 0v399h-99v145h99v181h170v-181h98v-145h-98v-399h-170z" />
    <glyph glyph-name="Tbar" unicode="&#x166;" horiz-adv-x="599" 
d="M582 640h-197v-188h119v-94h-119v-358h-170v358h-119v94h119v188h-198v170h565v-170z" />
    <glyph glyph-name="tbar" unicode="&#x167;" horiz-adv-x="383" 
d="M375 399h-98v-80h76v-94h-76v-225h-170v225h-76v94h76v80h-99v145h99v181h170v-181h98v-145z" />
    <glyph glyph-name="utilde" unicode="&#x169;" horiz-adv-x="587" 
d="M169 600l-94 39q33 132 136 132q34 0 60.5 -16.5t49 -32.5t45.5 -16q51 0 56 71l91 -37q-33 -134 -139 -134q-35 0 -63.5 15t-50 30.5t-39.5 15.5q-39 0 -52 -67zM293 -10q-109 0 -173.5 59t-64.5 160v335h170v-334q0 -32 18 -49.5t50 -17.5q33 0 51 17.5t18 49.5v334
h170v-335q0 -100 -64.5 -159.5t-174.5 -59.5z" />
    <glyph glyph-name="Umacron" unicode="&#x16a;" horiz-adv-x="732" 
d="M207 859v104h318v-104h-318zM70 810h170v-524q0 -53 36.5 -89.5t89.5 -36.5t89.5 36.5t36.5 89.5v524h170v-524q0 -123 -86.5 -209.5t-209.5 -86.5t-209.5 86.5t-86.5 209.5v524z" />
    <glyph glyph-name="umacron" unicode="&#x16b;" horiz-adv-x="587" 
d="M135 639v104h318v-104h-318zM293 -10q-109 0 -173.5 59t-64.5 160v335h170v-334q0 -32 18 -49.5t50 -17.5q33 0 51 17.5t18 49.5v334h170v-335q0 -100 -64.5 -159.5t-174.5 -59.5z" />
    <glyph glyph-name="Uring" unicode="&#x16e;" horiz-adv-x="732" 
d="M366 758q-65 0 -111.5 45.5t-46.5 112.5q0 65 45.5 111.5t112.5 46.5q65 0 111.5 -45.5t46.5 -112.5q0 -66 -46 -112t-112 -46zM366 841q31 0 53 21.5t22 53.5q0 31 -21.5 53t-53.5 22q-31 0 -53 -21.5t-22 -53.5q0 -31 21.5 -53t53.5 -22zM70 810h170v-524
q0 -53 36.5 -89.5t89.5 -36.5t89.5 36.5t36.5 89.5v524h170v-524q0 -123 -86.5 -209.5t-209.5 -86.5t-209.5 86.5t-86.5 209.5v524z" />
    <glyph glyph-name="uring" unicode="&#x16f;" horiz-adv-x="587" 
d="M294 594q-65 0 -111.5 45.5t-46.5 112.5q0 65 45.5 111.5t112.5 46.5q65 0 111.5 -45.5t46.5 -112.5q0 -66 -46 -112t-112 -46zM294 677q31 0 53 21.5t22 53.5q0 31 -21.5 53t-53.5 22q-31 0 -53 -21.5t-22 -53.5q0 -31 21.5 -53t53.5 -22zM293 -10q-109 0 -173.5 59
t-64.5 160v335h170v-334q0 -32 18 -49.5t50 -17.5q33 0 51 17.5t18 49.5v334h170v-335q0 -100 -64.5 -159.5t-174.5 -59.5z" />
    <glyph glyph-name="Uhungarumlaut" unicode="&#x170;" horiz-adv-x="732" 
d="M312 859h-113l150 187l93 -80zM532 859h-113l150 187l93 -80zM70 810h170v-524q0 -53 36.5 -89.5t89.5 -36.5t89.5 36.5t36.5 89.5v524h170v-524q0 -123 -86.5 -209.5t-209.5 -86.5t-209.5 86.5t-86.5 209.5v524z" />
    <glyph glyph-name="uhungarumlaut" unicode="&#x171;" horiz-adv-x="587" 
d="M210 617h-113l130 197l113 -80zM430 617h-113l130 197l113 -80zM293 -10q-109 0 -173.5 59t-64.5 160v335h170v-334q0 -32 18 -49.5t50 -17.5q33 0 51 17.5t18 49.5v334h170v-335q0 -100 -64.5 -159.5t-174.5 -59.5z" />
    <glyph glyph-name="Uogonek" unicode="&#x172;" horiz-adv-x="732" 
d="M492 810h170v-524q0 -119 -82 -205t-200 -91q-21 -22 -21 -52q0 -21 11 -32t28 -11q30 0 55 29l63 -71q-48 -57 -118 -57q-50 0 -85.5 32t-35.5 85q0 48 29 83q-102 21 -169 102.5t-67 187.5v524h170v-524q0 -53 36.5 -89.5t89.5 -36.5t89.5 36.5t36.5 89.5v524z" />
    <glyph glyph-name="uogonek" unicode="&#x173;" horiz-adv-x="587" 
d="M362 544h170v-335q0 -93 -55 -150.5t-151 -66.5q-71 -24 -71 -84q0 -21 11 -32t28 -11q30 0 55 29l63 -71q-48 -57 -118 -57q-50 0 -85.5 32t-35.5 85q0 70 60 112q-84 16 -131 72t-47 142v335h170v-334q0 -32 18 -49.5t50 -17.5q33 0 51 17.5t18 49.5v334z" />
    <glyph glyph-name="Wcircumflex" unicode="&#x174;" horiz-adv-x="1061" 
d="M532 941l-68 -82h-104l110 157h124l110 -157h-104zM1057 810l-381 -830l-145 326l-146 -326l-381 830h188l198 -470l61 144l-146 326h168l58 -137l57 137h168l-146 -326l61 -144l198 470h188z" />
    <glyph glyph-name="wcircumflex" unicode="&#x175;" horiz-adv-x="849" 
d="M253 613l110 197h124l110 -197h-104l-68 122l-68 -122h-104zM856 544l-271 -564l-160 344l-161 -344l-271 564h185l95 -229l98 229h107l98 -229l95 229h185z" />
    <glyph glyph-name="Ycircumflex" unicode="&#x176;" horiz-adv-x="676" 
d="M166 859l110 157h124l110 -157h-104l-68 82l-68 -82h-104zM253 0v382l-252 428h208l129 -253l130 253h207l-252 -428v-382h-170z" />
    <glyph glyph-name="ycircumflex" unicode="&#x177;" horiz-adv-x="558" 
d="M279 735l-68 -122h-104l110 197h124l110 -197h-104zM396 544h182l-310 -774h-177l100 256l-212 518h186l113 -309z" />
    <glyph glyph-name="Ydieresis" unicode="&#x178;" horiz-adv-x="676" 
d="M237 869q-29 0 -49 20.5t-20 48.5t20.5 48t48.5 20t48 -20t20 -48t-20 -48.5t-48 -20.5zM439 869q-29 0 -49 20.5t-20 48.5t20.5 48t48.5 20t48 -20t20 -48t-20 -48.5t-48 -20.5zM253 0v382l-252 428h208l129 -253l130 253h207l-252 -428v-382h-170z" />
    <glyph glyph-name="Zacute" unicode="&#x179;" horiz-adv-x="716" 
d="M298 859l150 187l93 -80l-130 -107h-113zM18 0l377 640h-344v170h641l-377 -640h362v-170h-659z" />
    <glyph glyph-name="zacute" unicode="&#x17a;" horiz-adv-x="555" 
d="M211 601l130 197l113 -80l-130 -117h-113zM10 0l253 399h-222v145h497l-254 -399h236v-145h-510z" />
    <glyph glyph-name="Zdotaccent" unicode="&#x17b;" horiz-adv-x="716" 
d="M355 849q-29 0 -49 20.5t-20 48.5t20.5 48t48.5 20t48 -20t20 -48t-20 -48.5t-48 -20.5zM18 0l377 640h-344v170h641l-377 -640h362v-170h-659z" />
    <glyph glyph-name="zdotaccent" unicode="&#x17c;" horiz-adv-x="555" 
d="M278 610q-40 0 -68 28t-28 67t28 67t68 28t68 -27.5t28 -67.5t-28 -67.5t-68 -27.5zM10 0l253 399h-222v145h497l-254 -399h236v-145h-510z" />
    <glyph glyph-name="Zcaron" unicode="&#x17d;" horiz-adv-x="716" 
d="M293 859l-110 167h104l68 -92l68 92h104l-110 -167h-124zM18 0l377 640h-344v170h641l-377 -640h362v-170h-659z" />
    <glyph glyph-name="zcaron" unicode="&#x17e;" horiz-adv-x="555" 
d="M216 593l-110 197h104l68 -122l68 122h104l-110 -197h-124zM10 0l253 399h-222v145h497l-254 -399h236v-145h-510z" />
    <glyph glyph-name="uni01CD" unicode="&#x1cd;" horiz-adv-x="770" 
d="M447 879h-124l-110 167h104l68 -92l68 92h104zM577 0l-45 110h-294l-45 -110h-189l381 830l381 -830h-189zM299 260h172l-86 212z" />
    <glyph glyph-name="uni01CE" unicode="&#x1ce;" horiz-adv-x="675" 
d="M290 613l-110 197h104l68 -122l68 122h104l-110 -197h-124zM291 -10q-112 0 -190.5 83t-78.5 200t79 200t190 83q85 0 144 -44v32h170v-544h-160l-2 39q-63 -49 -152 -49zM322 142q55 0 92 38t37 93q0 54 -37.5 92t-91.5 38q-55 0 -92.5 -37.5t-37.5 -92.5t38 -93t92 -38
z" />
    <glyph glyph-name="uni01CF" unicode="&#x1cf;" horiz-adv-x="346" 
d="M111 859l-110 167h104l68 -92l68 92h104l-110 -167h-124zM88 0v810h170v-810h-170z" />
    <glyph glyph-name="uni01D0" unicode="&#x1d0;" horiz-adv-x="308" 
d="M93 613l-110 197h104l68 -122l68 122h104l-110 -197h-124zM70 0v544h168v-544h-168z" />
    <glyph glyph-name="uni01D1" unicode="&#x1d1;" horiz-adv-x="896" 
d="M386 879l-110 167h104l68 -92l68 92h104l-110 -167h-124zM448 -10q-172 0 -293.5 121.5t-121.5 293.5t121.5 293.5t293.5 121.5t293.5 -121.5t121.5 -293.5t-121.5 -293.5t-293.5 -121.5zM448 160q102 0 173.5 71.5t71.5 173.5t-71.5 173.5t-173.5 71.5t-173.5 -71.5
t-71.5 -173.5t71.5 -173.5t173.5 -71.5z" />
    <glyph glyph-name="uni01D2" unicode="&#x1d2;" horiz-adv-x="617" 
d="M247 613l-110 197h104l68 -122l68 122h104l-110 -197h-124zM309 -10q-121 0 -204 81.5t-83 200.5t83 200.5t204 81.5q120 0 203 -82t83 -200t-83 -200t-203 -82zM309 150q50 0 85 35.5t35 86.5q0 50 -35 85.5t-85 35.5q-52 0 -87.5 -35t-35.5 -86t35.5 -86.5t87.5 -35.5z
" />
    <glyph glyph-name="uni01D3" unicode="&#x1d3;" horiz-adv-x="732" 
d="M304 859l-110 167h104l68 -92l68 92h104l-110 -167h-124zM70 810h170v-524q0 -53 36.5 -89.5t89.5 -36.5t89.5 36.5t36.5 89.5v524h170v-524q0 -123 -86.5 -209.5t-209.5 -86.5t-209.5 86.5t-86.5 209.5v524z" />
    <glyph glyph-name="uni01D4" unicode="&#x1d4;" horiz-adv-x="587" 
d="M232 613l-110 197h104l68 -122l68 122h104l-110 -197h-124zM293 -10q-109 0 -173.5 59t-64.5 160v335h170v-334q0 -32 18 -49.5t50 -17.5q33 0 51 17.5t18 49.5v334h170v-335q0 -100 -64.5 -159.5t-174.5 -59.5z" />
    <glyph glyph-name="uni01D5" unicode="&#x1d5;" horiz-adv-x="732" 
d="M207 1065v104h318v-104h-318zM265 869q-29 0 -49 20.5t-20 48.5t20.5 48t48.5 20t48 -20t20 -48t-20 -48.5t-48 -20.5zM467 869q-29 0 -49 20.5t-20 48.5t20.5 48t48.5 20t48 -20t20 -48t-20 -48.5t-48 -20.5zM70 810h170v-524q0 -53 36.5 -89.5t89.5 -36.5t89.5 36.5
t36.5 89.5v524h170v-524q0 -123 -86.5 -209.5t-209.5 -86.5t-209.5 86.5t-86.5 209.5v524z" />
    <glyph glyph-name="uni01D6" unicode="&#x1d6;" horiz-adv-x="587" 
d="M135 849v104h318v-104h-318zM193 617q-29 0 -49 20.5t-20 48.5t20.5 48t48.5 20t48 -20t20 -48t-20 -48.5t-48 -20.5zM395 617q-29 0 -49 20.5t-20 48.5t20.5 48t48.5 20t48 -20t20 -48t-20 -48.5t-48 -20.5zM293 -10q-109 0 -173.5 59t-64.5 160v335h170v-334
q0 -32 18 -49.5t50 -17.5q33 0 51 17.5t18 49.5v334h170v-335q0 -100 -64.5 -159.5t-174.5 -59.5z" />
    <glyph glyph-name="uni01D7" unicode="&#x1d7;" horiz-adv-x="732" 
d="M309 1065l150 187l93 -80l-130 -107h-113zM265 869q-29 0 -49 20.5t-20 48.5t20.5 48t48.5 20t48 -20t20 -48t-20 -48.5t-48 -20.5zM467 869q-29 0 -49 20.5t-20 48.5t20.5 48t48.5 20t48 -20t20 -48t-20 -48.5t-48 -20.5zM70 810h170v-524q0 -53 36.5 -89.5t89.5 -36.5
t89.5 36.5t36.5 89.5v524h170v-524q0 -123 -86.5 -209.5t-209.5 -86.5t-209.5 86.5t-86.5 209.5v524z" />
    <glyph glyph-name="uni01D8" unicode="&#x1d8;" horiz-adv-x="587" 
d="M227 831l130 197l113 -80l-130 -117h-113zM193 617q-29 0 -49 20.5t-20 48.5t20.5 48t48.5 20t48 -20t20 -48t-20 -48.5t-48 -20.5zM395 617q-29 0 -49 20.5t-20 48.5t20.5 48t48.5 20t48 -20t20 -48t-20 -48.5t-48 -20.5zM293 -10q-109 0 -173.5 59t-64.5 160v335h170
v-334q0 -32 18 -49.5t50 -17.5q33 0 51 17.5t18 49.5v334h170v-335q0 -100 -64.5 -159.5t-174.5 -59.5z" />
    <glyph glyph-name="uni01D9" unicode="&#x1d9;" horiz-adv-x="732" 
d="M304 1065l-110 167h104l68 -92l68 92h104l-110 -167h-124zM265 869q-29 0 -49 20.5t-20 48.5t20.5 48t48.5 20t48 -20t20 -48t-20 -48.5t-48 -20.5zM467 869q-29 0 -49 20.5t-20 48.5t20.5 48t48.5 20t48 -20t20 -48t-20 -48.5t-48 -20.5zM70 810h170v-524
q0 -53 36.5 -89.5t89.5 -36.5t89.5 36.5t36.5 89.5v524h170v-524q0 -123 -86.5 -209.5t-209.5 -86.5t-209.5 86.5t-86.5 209.5v524z" />
    <glyph glyph-name="uni01DA" unicode="&#x1da;" horiz-adv-x="587" 
d="M232 823l-110 197h104l68 -122l68 122h104l-110 -197h-124zM193 617q-29 0 -49 20.5t-20 48.5t20.5 48t48.5 20t48 -20t20 -48t-20 -48.5t-48 -20.5zM395 617q-29 0 -49 20.5t-20 48.5t20.5 48t48.5 20t48 -20t20 -48t-20 -48.5t-48 -20.5zM293 -10q-109 0 -173.5 59
t-64.5 160v335h170v-334q0 -32 18 -49.5t50 -17.5q33 0 51 17.5t18 49.5v334h170v-335q0 -100 -64.5 -159.5t-174.5 -59.5z" />
    <glyph glyph-name="uni01DB" unicode="&#x1db;" horiz-adv-x="732" 
d="M309 1065l-110 87l93 80l130 -167h-113zM265 869q-29 0 -49 20.5t-20 48.5t20.5 48t48.5 20t48 -20t20 -48t-20 -48.5t-48 -20.5zM467 869q-29 0 -49 20.5t-20 48.5t20.5 48t48.5 20t48 -20t20 -48t-20 -48.5t-48 -20.5zM70 810h170v-524q0 -53 36.5 -89.5t89.5 -36.5
t89.5 36.5t36.5 89.5v524h170v-524q0 -123 -86.5 -209.5t-209.5 -86.5t-209.5 86.5t-86.5 209.5v524z" />
    <glyph glyph-name="uni01DC" unicode="&#x1dc;" horiz-adv-x="587" 
d="M237 827l-130 117l113 80l130 -197h-113zM193 617q-29 0 -49 20.5t-20 48.5t20.5 48t48.5 20t48 -20t20 -48t-20 -48.5t-48 -20.5zM395 617q-29 0 -49 20.5t-20 48.5t20.5 48t48.5 20t48 -20t20 -48t-20 -48.5t-48 -20.5zM293 -10q-109 0 -173.5 59t-64.5 160v335h170
v-334q0 -32 18 -49.5t50 -17.5q33 0 51 17.5t18 49.5v334h170v-335q0 -100 -64.5 -159.5t-174.5 -59.5z" />
    <glyph glyph-name="Oslashacute" unicode="&#x1fe;" horiz-adv-x="896" 
d="M634 986l-130 -107h-113l150 187zM778 657q85 -112 85 -252q0 -172 -121.5 -293.5t-293.5 -121.5q-140 0 -252 85l-44 -44l-78 78l44 44q-85 112 -85 252q0 172 121.5 293.5t293.5 121.5q140 0 252 -85l44 44l78 -78zM203 405q0 -69 37 -130l338 338q-61 37 -130 37
q-102 0 -173.5 -71.5t-71.5 -173.5zM448 160q102 0 173.5 71.5t71.5 173.5q0 69 -37 130l-338 -338q61 -37 130 -37z" />
    <glyph glyph-name="oslashacute" unicode="&#x1ff;" horiz-adv-x="617" 
d="M485 738l-130 -117h-113l130 197zM538 443q57 -74 57 -171q0 -118 -83 -200t-203 -82q-94 0 -171 53l-46 -46l-58 57l46 46q-58 74 -58 172q0 119 83 200.5t204 81.5q95 0 171 -54l47 47l57 -58zM186 272q0 -30 12 -54l163 163q-24 12 -52 12q-52 0 -87.5 -35t-35.5 -86z
M309 150q50 0 85 35.5t35 86.5q0 27 -11 51l-162 -162q25 -11 53 -11z" />
    <glyph glyph-name="Scommaaccent" unicode="&#x218;" horiz-adv-x="586" 
d="M296 -10q-100 0 -177 58t-99 151l148 67q13 -54 46 -84.5t77 -30.5q45 0 68.5 28t23.5 64q0 22 -9 39.5t-31.5 33t-39 24t-51.5 24.5q-34 16 -53.5 26t-48.5 31t-45 42.5t-28 55t-12 74.5q0 102 64.5 164.5t165.5 62.5q78 0 140 -39.5t89 -114.5l-140 -62q-32 65 -83 65
q-29 0 -47 -18t-18 -44q0 -12 4 -23t13.5 -21t17.5 -17t24.5 -16t26 -13.5t30.5 -14.5t30 -14q37 -18 63.5 -35.5t53.5 -45t41.5 -67t14.5 -89.5q0 -116 -73 -188.5t-186 -72.5zM194 -297l30 227h133l-110 -227h-53z" />
    <glyph glyph-name="scommaaccent" unicode="&#x219;" horiz-adv-x="480" 
d="M245 -10q-125 0 -231 75l96 118q77 -51 135 -51q40 0 40 29q0 8 -3 14t-12.5 11t-16.5 8t-26.5 9.5t-30.5 10.5q-84 31 -120 69t-36 96q0 79 56.5 127t145.5 48q114 0 209 -77l-101 -102q-63 47 -115 47q-31 0 -31 -26q0 -14 14 -22t69 -27q35 -12 59 -24t50.5 -32
t40 -51t13.5 -71q0 -82 -56 -130.5t-149 -48.5zM146 -297l30 227h133l-110 -227h-53z" />
    <glyph glyph-name="uni021A" unicode="&#x21a;" horiz-adv-x="599" 
d="M215 0v640h-198v170h565v-170h-197v-640h-170zM203 -277l30 227h133l-110 -227h-53z" />
    <glyph glyph-name="uni021B" unicode="&#x21b;" horiz-adv-x="383" 
d="M107 0v399h-99v145h99v181h170v-181h98v-145h-98v-399h-170zM95 -297l30 227h133l-110 -227h-53z" />
    <glyph glyph-name="circumflex" unicode="&#x2c6;" horiz-adv-x="378" 
d="M11 573l110 197h124l110 -197h-104l-68 122l-68 -122h-104z" />
    <glyph glyph-name="caron" unicode="&#x2c7;" horiz-adv-x="392" 
d="M134 573l-110 197h104l68 -122l68 122h104l-110 -197h-124z" />
    <glyph glyph-name="breve" unicode="&#x2d8;" horiz-adv-x="444" 
d="M229 568q-79 0 -131.5 50.5t-52.5 126.5v25h99v-25q0 -32 22.5 -55t54.5 -23t55 23t23 55v25h99v-25q0 -73 -50 -125t-119 -52z" />
    <glyph glyph-name="dotaccent" unicode="&#x2d9;" horiz-adv-x="259" 
d="M141 630q-40 0 -68 28t-28 67t28 67t68 28t68 -27.5t28 -67.5t-28 -67.5t-68 -27.5z" />
    <glyph glyph-name="ring" unicode="&#x2da;" horiz-adv-x="413" 
d="M211 550q-65 0 -111.5 45.5t-46.5 112.5q0 65 45.5 111.5t112.5 46.5q65 0 111.5 -45.5t46.5 -112.5q0 -66 -46 -112t-112 -46zM211 633q31 0 53 21.5t22 53.5q0 31 -21.5 53t-53.5 22q-31 0 -53 -21.5t-22 -53.5q0 -31 21.5 -53t53.5 -22z" />
    <glyph glyph-name="ogonek" unicode="&#x2db;" horiz-adv-x="311" 
d="M48 -117q0 50 34 89.5t101 56.5l58 -29q-56 -6 -83.5 -32.5t-27.5 -59.5q0 -21 11 -32t28 -11q30 0 55 29l63 -71q-48 -57 -118 -57q-50 0 -85.5 32t-35.5 85z" />
    <glyph glyph-name="tilde" unicode="&#x2dc;" horiz-adv-x="535" 
d="M147 560l-94 39q33 132 136 132q34 0 60.5 -16.5t49 -32.5t45.5 -16q51 0 56 71l91 -37q-33 -134 -139 -134q-35 0 -63.5 15t-50 30.5t-39.5 15.5q-39 0 -52 -67z" />
    <glyph glyph-name="hungarumlaut" unicode="&#x2dd;" horiz-adv-x="492" 
d="M114 577h-113l130 197l113 -80zM334 577h-113l130 197l113 -80z" />
    <glyph glyph-name="gravecomb" unicode="&#x300;" 
d="M-131 577l-130 117l113 80l130 -197h-113z" />
    <glyph glyph-name="acutecomb" unicode="&#x301;" 
d="M-271 577l130 197l113 -80l-130 -117h-113z" />
    <glyph glyph-name="uni0302" unicode="&#x302;" 
d="M-367 573l110 197h124l110 -197h-104l-68 122l-68 -122h-104z" />
    <glyph glyph-name="tildecomb" unicode="&#x303;" 
d="M-388 560l-94 39q33 132 136 132q34 0 60.5 -16.5t49 -32.5t45.5 -16q51 0 56 71l91 -37q-33 -134 -139 -134q-35 0 -63.5 15t-50 30.5t-39.5 15.5q-39 0 -52 -67z" />
    <glyph glyph-name="uni0304" unicode="&#x304;" 
d="M-392 595v104h318v-104h-318z" />
    <glyph glyph-name="uni0306" unicode="&#x306;" 
d="M-215 568q-79 0 -131.5 50.5t-52.5 126.5v25h99v-25q0 -32 22.5 -55t54.5 -23t55 23t23 55v25h99v-25q0 -73 -50 -125t-119 -52z" />
    <glyph glyph-name="uni0307" unicode="&#x307;" 
d="M-142 630q-40 0 -68 28t-28 67t28 67t68 28t68 -27.5t28 -67.5t-28 -67.5t-68 -27.5z" />
    <glyph glyph-name="uni0308" unicode="&#x308;" 
d="M-331 617q-29 0 -49 20.5t-20 48.5t20.5 48t48.5 20t48 -20t20 -48t-20 -48.5t-48 -20.5zM-129 617q-29 0 -49 20.5t-20 48.5t20.5 48t48.5 20t48 -20t20 -48t-20 -48.5t-48 -20.5z" />
    <glyph glyph-name="uni030A" unicode="&#x30a;" 
d="M-202 550q-65 0 -111.5 45.5t-46.5 112.5q0 65 45.5 111.5t112.5 46.5q65 0 111.5 -45.5t46.5 -112.5q0 -66 -46 -112t-112 -46zM-202 633q31 0 53 21.5t22 53.5q0 31 -21.5 53t-53.5 22q-31 0 -53 -21.5t-22 -53.5q0 -31 21.5 -53t53.5 -22z" />
    <glyph glyph-name="uni030B" unicode="&#x30b;" 
d="M-378 577h-113l130 197l113 -80zM-158 577h-113l130 197l113 -80z" />
    <glyph glyph-name="uni030C" unicode="&#x30c;" 
d="M-258 573l-110 197h104l68 -122l68 122h104l-110 -197h-124z" />
    <glyph glyph-name="uni0312" unicode="&#x312;" 
d="M-227 585l80 247h73v-247h-153z" />
    <glyph glyph-name="uni0326" unicode="&#x326;" 
d="M-186 -297l30 227h133l-110 -227h-53z" />
    <glyph glyph-name="uni0327" unicode="&#x327;" 
d="M-142 -43q44 -6 70.5 -36t26.5 -74q0 -48 -31 -79.5t-83 -31.5q-63 0 -101 42l44 59q22 -34 56 -34q18 0 30.5 12t12.5 32q0 22 -13 33.5t-31 11.5q-25 0 -37 -16l-46 46l62 86h85z" />
    <glyph glyph-name="uni0328" unicode="&#x328;" 
d="M-263 -117q0 50 34 89.5t101 56.5l58 -29q-56 -6 -83.5 -32.5t-27.5 -59.5q0 -21 11 -32t28 -11q30 0 55 29l63 -71q-48 -57 -118 -57q-50 0 -85.5 32t-35.5 85z" />
    <glyph glyph-name="uni0335" unicode="&#x335;" 
d="M-482 338v94h408v-94h-408z" />
    <glyph glyph-name="uni0336" unicode="&#x336;" 
d="M-712 333v104h638v-104h-638z" />
    <glyph glyph-name="uni1E3E" unicode="&#x1e3e;" horiz-adv-x="948" 
d="M417 859l150 187l93 -80l-130 -107h-113zM88 0v830l386 -502l386 502v-830h-169v358l-217 -299l-216 299v-358h-170z" />
    <glyph glyph-name="uni1E3F" unicode="&#x1e3f;" horiz-adv-x="900" 
d="M381 601l130 197l113 -80l-130 -117h-113zM70 0v544h170v-24q46 34 102 34q83 0 144 -67q58 67 150 67q88 0 147 -61.5t59 -153.5v-339h-170v329q0 30 -18 49.5t-46 19.5q-29 0 -48 -21t-19 -54v-323h-170v329q0 31 -18.5 50t-47.5 19t-47 -21t-18 -54v-323h-170z" />
    <glyph glyph-name="uni1E44" unicode="&#x1e44;" horiz-adv-x="809" 
d="M405 849q-29 0 -49 20.5t-20 48.5t20.5 48t48.5 20t48 -20t20 -48t-20 -48.5t-48 -20.5zM721 -20l-463 452v-432h-170v830l463 -454v434h170v-830z" />
    <glyph glyph-name="uni1E45" unicode="&#x1e45;" horiz-adv-x="613" 
d="M304 610q-40 0 -68 28t-28 67t28 67t68 28t68 -27.5t28 -67.5t-28 -67.5t-68 -27.5zM70 0v544h169v-34q47 44 115 44q84 0 142.5 -60.5t58.5 -147.5v-346h-170v330q0 31 -20 50.5t-51 19.5q-32 0 -53 -20t-22 -50v-330h-169z" />
    <glyph glyph-name="uni1E4C" unicode="&#x1e4c;" horiz-adv-x="896" 
d="M391 1112l150 187l93 -80l-130 -107h-113zM323 866l-94 39q33 132 136 132q34 0 60.5 -16.5t49 -32.5t45.5 -16q51 0 56 71l91 -37q-33 -134 -139 -134q-35 0 -63.5 15t-50 30.5t-39.5 15.5q-39 0 -52 -67zM448 -10q-172 0 -293.5 121.5t-121.5 293.5t121.5 293.5
t293.5 121.5t293.5 -121.5t121.5 -293.5t-121.5 -293.5t-293.5 -121.5zM448 160q102 0 173.5 71.5t71.5 173.5t-71.5 173.5t-173.5 71.5t-173.5 -71.5t-71.5 -173.5t71.5 -173.5t173.5 -71.5z" />
    <glyph glyph-name="uni1E4D" unicode="&#x1e4d;" horiz-adv-x="617" 
d="M242 842l130 197l113 -80l-130 -117h-113zM184 600l-94 39q33 132 136 132q34 0 60.5 -16.5t49 -32.5t45.5 -16q51 0 56 71l91 -37q-33 -134 -139 -134q-35 0 -63.5 15t-50 30.5t-39.5 15.5q-39 0 -52 -67zM309 -10q-121 0 -204 81.5t-83 200.5t83 200.5t204 81.5
q120 0 203 -82t83 -200t-83 -200t-203 -82zM309 150q50 0 85 35.5t35 86.5q0 50 -35 85.5t-85 35.5q-52 0 -87.5 -35t-35.5 -86t35.5 -86.5t87.5 -35.5z" />
    <glyph glyph-name="Wgrave" unicode="&#x1e80;" horiz-adv-x="1061" 
d="M588 859h-113l-110 87l93 80zM1057 810l-381 -830l-145 326l-146 -326l-381 830h188l198 -470l61 144l-146 326h168l58 -137l57 137h168l-146 -326l61 -144l198 470h188z" />
    <glyph glyph-name="wgrave" unicode="&#x1e81;" horiz-adv-x="849" 
d="M368 617l-130 117l113 80l130 -197h-113zM856 544l-271 -564l-160 344l-161 -344l-271 564h185l95 -229l98 229h107l98 -229l95 229h185z" />
    <glyph glyph-name="Wacute" unicode="&#x1e82;" horiz-adv-x="1061" 
d="M718 966l-130 -107h-113l150 187zM1057 810l-381 -830l-145 326l-146 -326l-381 830h188l198 -470l61 144l-146 326h168l58 -137l57 137h168l-146 -326l61 -144l198 470h188z" />
    <glyph glyph-name="wacute" unicode="&#x1e83;" horiz-adv-x="849" 
d="M358 621l130 197l113 -80l-130 -117h-113zM856 544l-271 -564l-160 344l-161 -344l-271 564h185l95 -229l98 229h107l98 -229l95 229h185z" />
    <glyph glyph-name="Wdieresis" unicode="&#x1e84;" horiz-adv-x="1061" 
d="M431 869q-29 0 -49 20.5t-20 48.5t20.5 48t48.5 20t48 -20t20 -48t-20 -48.5t-48 -20.5zM633 869q-29 0 -49 20.5t-20 48.5t20.5 48t48.5 20t48 -20t20 -48t-20 -48.5t-48 -20.5zM1057 810l-381 -830l-145 326l-146 -326l-381 830h188l198 -470l61 144l-146 326h168
l58 -137l57 137h168l-146 -326l61 -144l198 470h188z" />
    <glyph glyph-name="wdieresis" unicode="&#x1e85;" horiz-adv-x="849" 
d="M324 617q-28 0 -48.5 20.5t-20.5 48.5t20.5 48t48.5 20t48 -20t20 -48t-20 -48.5t-48 -20.5zM526 617q-28 0 -48.5 20.5t-20.5 48.5t20.5 48t48.5 20t48 -20t20 -48t-20 -48.5t-48 -20.5zM856 544l-271 -564l-160 344l-161 -344l-271 564h185l95 -229l98 229h107l98 -229
l95 229h185z" />
    <glyph glyph-name="uni1EBC" unicode="&#x1ebc;" horiz-adv-x="668" 
d="M223 866l-94 39q33 132 136 132q34 0 60.5 -16.5t49 -32.5t45.5 -16q51 0 56 71l91 -37q-33 -134 -139 -134q-35 0 -63.5 15t-50 30.5t-39.5 15.5q-39 0 -52 -67zM88 0v810h520v-170h-350v-150h310v-170h-310v-150h350v-170h-520z" />
    <glyph glyph-name="uni1EBD" unicode="&#x1ebd;" horiz-adv-x="609" 
d="M232 667q-39 0 -52 -67l-94 39q33 132 136 132q34 0 60.5 -16.5t49 -32.5t45.5 -16q51 0 56 71l91 -37q-33 -134 -139 -134q-35 0 -63.5 15t-50 30.5t-39.5 15.5zM308 554q120 0 199 -78t80 -199v-1l-2 -47h-392q11 -44 42.5 -69t75.5 -25q67 0 104 51l152 -39
q-31 -73 -99.5 -115t-155.5 -42q-124 0 -207 80.5t-83 201.5q0 120 82 201t204 81zM309 411q-79 0 -109 -72h211q-28 72 -102 72z" />
    <glyph glyph-name="Ygrave" unicode="&#x1ef2;" horiz-adv-x="676" 
d="M281 859l-110 87l93 80l130 -167h-113zM253 0v382l-252 428h208l129 -253l130 253h207l-252 -428v-382h-170z" />
    <glyph glyph-name="ygrave" unicode="&#x1ef3;" horiz-adv-x="558" 
d="M335 617h-113l-130 117l113 80zM396 544h182l-310 -774h-177l100 256l-212 518h186l113 -309z" />
    <glyph glyph-name="endash" unicode="&#x2013;" horiz-adv-x="726" 
d="M74 200v170h578v-170h-578z" />
    <glyph glyph-name="emdash" unicode="&#x2014;" horiz-adv-x="1188" 
d="M74 200v170h1040v-170h-1040z" />
    <glyph glyph-name="quoteleft" unicode="&#x2018;" horiz-adv-x="342" 
d="M151 473l-114 337h199l34 -337h-119z" />
    <glyph glyph-name="quoteright" unicode="&#x2019;" horiz-adv-x="342" 
d="M191 473h-119l34 337h199z" />
    <glyph glyph-name="quotesinglbase" unicode="&#x201a;" horiz-adv-x="340" 
d="M72 -196l34 337h200l-125 -337h-109z" />
    <glyph glyph-name="quotedblleft" unicode="&#x201c;" horiz-adv-x="562" 
d="M151 473l-114 337h199l34 -337h-119zM371 473l-94 337h179l34 -337h-119z" />
    <glyph glyph-name="quotedblright" unicode="&#x201d;" horiz-adv-x="562" 
d="M72 473l34 337h179l-94 -337h-119zM292 473l34 337h199l-114 -337h-119z" />
    <glyph glyph-name="quotedblbase" unicode="&#x201e;" horiz-adv-x="560" 
d="M72 -196l34 337h180l-105 -337h-109zM292 -196l34 337h200l-125 -337h-109z" />
    <glyph glyph-name="bullet" unicode="&#x2022;" horiz-adv-x="449" 
d="M223 255q-64 0 -105.5 42t-41.5 106q0 63 43.5 106.5t105.5 43.5t105.5 -44t43.5 -106t-43.5 -105t-107.5 -43z" />
    <glyph glyph-name="ellipsis" unicode="&#x2026;" horiz-adv-x="1062" 
d="M197 -10q-49 0 -82.5 33.5t-33.5 82.5q0 48 34 82.5t82 34.5q49 0 83 -34.5t34 -82.5q0 -50 -33.5 -83t-83.5 -33zM530 -10q-49 0 -82.5 33.5t-33.5 82.5q0 48 34 82.5t82 34.5q49 0 83 -34.5t34 -82.5q0 -50 -33.5 -83t-83.5 -33zM863 -10q-49 0 -82.5 33.5t-33.5 82.5
q0 48 34 82.5t82 34.5q49 0 83 -34.5t34 -82.5q0 -50 -33.5 -83t-83.5 -33z" />
    <glyph glyph-name="perthousand" unicode="&#x2030;" horiz-adv-x="1243" 
d="M229 460q-73 0 -124 53t-51 127t51 127t124 53t124 -53t51 -127t-51 -127t-124 -53zM78 -1l508 811h181l-508 -811h-181zM229 593q21 0 34 13t13 34t-13 34t-34 13q-20 0 -33.5 -13.5t-13.5 -33.5t13.5 -33.5t33.5 -13.5zM618 -10q-73 0 -124.5 52.5t-51.5 127.5
t51.5 127.5t124.5 52.5t124 -53t51 -127t-51.5 -127t-123.5 -53zM1014 -10q-73 0 -124.5 52.5t-51.5 127.5t51.5 127.5t124.5 52.5t124 -53t51 -127t-51.5 -127t-123.5 -53zM618 123q20 0 34 13.5t14 33.5t-14 33.5t-34 13.5q-21 0 -35 -13t-14 -34q0 -20 14 -33.5t35 -13.5
zM1014 123q20 0 34 13.5t14 33.5t-14 33.5t-34 13.5q-21 0 -35 -13t-14 -34q0 -20 14 -33.5t35 -13.5z" />
    <glyph glyph-name="fraction" unicode="&#x2044;" horiz-adv-x="219" 
d="M-170 -180l415 1000h144l-415 -1000h-144z" />
    <glyph glyph-name="trademark" unicode="&#x2122;" horiz-adv-x="693" 
d="M303 477v333l139 -192l140 192v-333h-69v139l-71 -93l-70 92v-138h-69zM135 477v244h-69v69h207v-69h-69v-244h-69z" />
    <glyph glyph-name="minus" unicode="&#x2212;" horiz-adv-x="671" 
d="M104 208v170h463v-170h-463z" />
    <glyph glyph-name="uniF8FF" unicode="&#xf8ff;" horiz-adv-x="826" 
d="M413 20q-157 0 -268.5 111.5t-111.5 268.5t111.5 268.5t268.5 111.5t268.5 -111t111.5 -269q0 -157 -111.5 -268.5t-268.5 -111.5zM413 56q142 0 243 101t101 243t-100.5 243t-243.5 101q-142 0 -243 -101t-101 -243t101 -243t243 -101zM612 237q-8 0 -12 6l-145 144
q-12 14 0 26l145 145q12 12 25 0q13 -13 0 -26l-132 -132l132 -132q13 -12 0 -25q-5 -6 -13 -6zM214 237q-8 0 -13 5.5t-5 12.5v290q0 7 5 12.5t13 5.5t13 -5.5t5 -12.5v-290q0 -7 -5 -12.5t-13 -5.5zM413 237q-7 0 -12.5 5.5t-5.5 12.5v290q0 7 5.5 12.5t12.5 5.5
t12.5 -5.5t5.5 -12.5v-290q0 -7 -5.5 -12.5t-12.5 -5.5zM268 382q-8 0 -13 5t-5 13t5 13t13 5h91q7 0 12.5 -5t5.5 -13t-5.5 -13t-12.5 -5h-91z" />
    <glyph glyph-name="i.loclTRK" horiz-adv-x="308" 
d="M155 630q-40 0 -68 28t-28 67t28 67t68 28t68 -27.5t28 -67.5t-28 -67.5t-68 -27.5zM70 0v544h168v-544h-168z" />
    <glyph glyph-name="a.ss01" horiz-adv-x="588" 
d="M282 544q129 0 188.5 -51t59.5 -172v-321h-152l-8 58h-6q-38 -68 -144 -68q-74 0 -130 42t-56 120q0 36 10 67t45 108h270v6q0 40 -19.5 60t-65.5 20h-187v131h195zM266 114q58 0 93 54v57h-134q-20 -39 -20 -59q0 -26 19.5 -39t41.5 -13z" />
    <glyph glyph-name="aacute.ss01" horiz-adv-x="588" 
d="M469 738l-130 -117h-113l130 197zM282 544q129 0 188.5 -51t59.5 -172v-321h-152l-8 58h-6q-38 -68 -144 -68q-74 0 -130 42t-56 120q0 36 10 67t45 108h270v6q0 40 -19.5 60t-65.5 20h-187v131h195zM266 114q58 0 93 54v57h-134q-20 -39 -20 -59q0 -26 19.5 -39
t41.5 -13z" />
    <glyph glyph-name="abreve.ss01" horiz-adv-x="588" 
d="M300 612q-79 0 -131.5 50.5t-52.5 126.5v25h99v-25q0 -32 22.5 -55t54.5 -23t55 23t23 55v25h99v-25q0 -73 -50 -125t-119 -52zM282 544q129 0 188.5 -51t59.5 -172v-321h-152l-8 58h-6q-38 -68 -144 -68q-74 0 -130 42t-56 120q0 36 10 67t45 108h270v6q0 40 -19.5 60
t-65.5 20h-187v131h195zM266 114q58 0 93 54v57h-134q-20 -39 -20 -59q0 -26 19.5 -39t41.5 -13z" />
    <glyph glyph-name="uni01CE.ss01" horiz-adv-x="588" 
d="M355 613h-124l-110 197h104l68 -122l68 122h104zM282 544q129 0 188.5 -51t59.5 -172v-321h-152l-8 58h-6q-38 -68 -144 -68q-74 0 -130 42t-56 120q0 36 10 67t45 108h270v6q0 40 -19.5 60t-65.5 20h-187v131h195zM266 114q58 0 93 54v57h-134q-20 -39 -20 -59
q0 -26 19.5 -39t41.5 -13z" />
    <glyph glyph-name="acircumflex.ss01" horiz-adv-x="588" 
d="M293 735l-68 -122h-104l110 197h124l110 -197h-104zM282 544q129 0 188.5 -51t59.5 -172v-321h-152l-8 58h-6q-38 -68 -144 -68q-74 0 -130 42t-56 120q0 36 10 67t45 108h270v6q0 40 -19.5 60t-65.5 20h-187v131h195zM266 114q58 0 93 54v57h-134q-20 -39 -20 -59
q0 -26 19.5 -39t41.5 -13z" />
    <glyph glyph-name="adieresis.ss01" horiz-adv-x="588" 
d="M192 617q-28 0 -48.5 20.5t-20.5 48.5t20.5 48t48.5 20t48 -20t20 -48t-20 -48.5t-48 -20.5zM394 617q-28 0 -48.5 20.5t-20.5 48.5t20.5 48t48.5 20t48 -20t20 -48t-20 -48.5t-48 -20.5zM282 544q129 0 188.5 -51t59.5 -172v-321h-152l-8 58h-6q-38 -68 -144 -68
q-74 0 -130 42t-56 120q0 36 10 67t45 108h270v6q0 40 -19.5 60t-65.5 20h-187v131h195zM266 114q58 0 93 54v57h-134q-20 -39 -20 -59q0 -26 19.5 -39t41.5 -13z" />
    <glyph glyph-name="agrave.ss01" horiz-adv-x="588" 
d="M349 617h-113l-130 117l113 80zM282 544q129 0 188.5 -51t59.5 -172v-321h-152l-8 58h-6q-38 -68 -144 -68q-74 0 -130 42t-56 120q0 36 10 67t45 108h270v6q0 40 -19.5 60t-65.5 20h-187v131h195zM266 114q58 0 93 54v57h-134q-20 -39 -20 -59q0 -26 19.5 -39t41.5 -13z
" />
    <glyph glyph-name="amacron.ss01" horiz-adv-x="588" 
d="M452 743v-104h-318v104h318zM282 544q129 0 188.5 -51t59.5 -172v-321h-152l-8 58h-6q-38 -68 -144 -68q-74 0 -130 42t-56 120q0 36 10 67t45 108h270v6q0 40 -19.5 60t-65.5 20h-187v131h195zM266 114q58 0 93 54v57h-134q-20 -39 -20 -59q0 -26 19.5 -39t41.5 -13z
" />
    <glyph glyph-name="aogonek.ss01" horiz-adv-x="588" 
d="M514 -106l63 -71q-48 -57 -118 -57q-50 0 -85.5 32t-35.5 85q0 74 67 117h-27l-8 58h-6q-38 -68 -144 -68q-74 0 -130 42t-56 120q0 36 10 67t45 108h270v6q0 40 -19.5 60t-65.5 20h-187v131h195q129 0 188.5 -51t59.5 -172v-320l1 -1q-56 -6 -83.5 -32.5t-27.5 -59.5
q0 -21 11 -32t28 -11q30 0 55 29zM266 114q58 0 93 54v57h-134q-20 -39 -20 -59q0 -26 19.5 -39t41.5 -13z" />
    <glyph glyph-name="aring.ss01" horiz-adv-x="588" 
d="M293 594q-65 0 -111.5 45.5t-46.5 112.5q0 65 45.5 111.5t112.5 46.5q65 0 111.5 -45.5t46.5 -112.5q0 -66 -46 -112t-112 -46zM293 827q-31 0 -53 -21.5t-22 -53.5q0 -31 21.5 -53t53.5 -22q31 0 53 21.5t22 53.5q0 31 -21.5 53t-53.5 22zM282 544q129 0 188.5 -51
t59.5 -172v-321h-152l-8 58h-6q-38 -68 -144 -68q-74 0 -130 42t-56 120q0 36 10 67t45 108h270v6q0 40 -19.5 60t-65.5 20h-187v131h195zM266 114q58 0 93 54v57h-134q-20 -39 -20 -59q0 -26 19.5 -39t41.5 -13z" />
    <glyph glyph-name="atilde.ss01" horiz-adv-x="588" 
d="M220 667q-39 0 -52 -67l-94 39q33 132 136 132q34 0 60.5 -16.5t49 -32.5t45.5 -16q51 0 56 71l91 -37q-33 -134 -139 -134q-35 0 -63.5 15t-50 30.5t-39.5 15.5zM282 544q129 0 188.5 -51t59.5 -172v-321h-152l-8 58h-6q-38 -68 -144 -68q-74 0 -130 42t-56 120
q0 36 10 67t45 108h270v6q0 40 -19.5 60t-65.5 20h-187v131h195zM266 114q58 0 93 54v57h-134q-20 -39 -20 -59q0 -26 19.5 -39t41.5 -13z" />
    <glyph glyph-name="emdash.case" horiz-adv-x="1188" 
d="M74 320v170h1040v-170h-1040z" />
    <glyph glyph-name="endash.case" horiz-adv-x="726" 
d="M74 320v170h578v-170h-578z" />
    <glyph glyph-name="uni0308.case" 
d="M-331 889q-29 0 -49 20.5t-20 48.5t20.5 48t48.5 20t48 -20t20 -48t-20 -48.5t-48 -20.5zM-129 889q-29 0 -49 20.5t-20 48.5t20.5 48t48.5 20t48 -20t20 -48t-20 -48.5t-48 -20.5z" />
    <glyph glyph-name="uni0307.case" 
d="M-129 869q-29 0 -49 20.5t-20 48.5t20.5 48t48.5 20t48 -20t20 -48t-20 -48.5t-48 -20.5z" />
    <glyph glyph-name="gravecomb.case" 
d="M-132 879l-110 87l93 80l130 -167h-113z" />
    <glyph glyph-name="acutecomb.case" 
d="M-273 879l150 187l93 -80l-130 -107h-113z" />
    <glyph glyph-name="uni030B.case" 
d="M-380 879h-113l150 187l93 -80zM-160 879h-113l150 187l93 -80z" />
    <glyph glyph-name="uni0302.case" 
d="M-367 879l110 157h124l110 -157h-104l-68 82l-68 -82h-104z" />
    <glyph glyph-name="uni030C.case" 
d="M-258 879l-110 167h104l68 -92l68 92h104l-110 -167h-124z" />
    <glyph glyph-name="uni0306.case" 
d="M-213 839q-79 0 -131.5 50.5t-52.5 126.5v15h99v-15q0 -32 22.5 -55t54.5 -23t55 23t23 55v15h99v-15q0 -73 -50 -125t-119 -52z" />
    <glyph glyph-name="uni030A.case" 
d="M-202 778q-65 0 -111.5 45.5t-46.5 112.5q0 65 45.5 111.5t112.5 46.5q65 0 111.5 -45.5t46.5 -112.5q0 -66 -46 -112t-112 -46zM-202 861q31 0 53 21.5t22 53.5q0 31 -21.5 53t-53.5 22q-31 0 -53 -21.5t-22 -53.5q0 -31 21.5 -53t53.5 -22z" />
    <glyph glyph-name="tildecomb.case" 
d="M-388 866l-94 39q33 132 136 132q34 0 60.5 -16.5t49 -32.5t45.5 -16q51 0 56 71l91 -37q-33 -134 -139 -134q-35 0 -63.5 15t-50 30.5t-39.5 15.5q-39 0 -52 -67z" />
    <glyph glyph-name="uni0304.case" 
d="M-392 879v104h318v-104h-318z" />
    </font>
</defs>
</svg>
